<svg version="1.1" xmlns="http://www.w3.org/2000/svg" xmlns:xlink="http://www.w3.org/1999/xlink" width="364.86486" height="343.84384" viewBox="0,0,364.86486,343.84384"><g transform="translate(-5.01503,-6.27628)"><g data-paper-data="{&quot;isPaintingLayer&quot;:true}" fill-rule="nonzero" stroke-linejoin="miter" stroke-miterlimit="10" stroke-dasharray="" stroke-dashoffset="0" style="mix-blend-mode: normal"><path d="M97.87083,161.55337c-2.62329,-5.67283 3.04953,-8.2961 3.04953,-8.2961l5.34449,-2.46858c19.19433,-7.56148 38.64809,-12.37389 59.43982,-10.72355c5.40352,0.42891 10.56687,1.84292 15.93271,2.46909c0,0 6.20665,0.73482 5.47184,6.94148c-0.73482,6.20665 -6.9415,5.47182 -6.9415,5.47182c-5.15705,-0.61822 -10.15907,-2.01479 -15.34238,-2.41335c-18.82001,-1.44711 -36.27024,2.89952 -53.6439,9.74701l-5.01451,2.32173c0,0 -5.67282,2.62329 -8.2961,-3.04953z" fill="#000000" stroke="none" stroke-width="0.5" stroke-linecap="butt"/><path d="M192.38471,143.12884l4.35834,-8.44127l15.94322,8.23171l-4.35834,8.44127z" fill="#3c3c3c" stroke="#000000" stroke-width="2" stroke-linecap="butt"/><path d="M253.05799,127.9659c-8.77266,16.99094 -30.32466,23.30905 -48.13773,14.11192c-17.81308,-9.19714 -25.1418,-30.42678 -16.36912,-47.41771c8.77266,-16.99094 30.32465,-23.30904 48.13773,-14.11191c17.81308,9.19714 25.1418,30.42678 16.36913,47.41771z" fill="#848484" stroke="#000000" stroke-width="2" stroke-linecap="butt"/><path d="M211.04153,202.77972c-7.41813,14.36747 -11.3886,18.53417 -23.46257,21.9549c-7.5149,2.12909 -18.40408,-2.78705 -25.04028,-6.21342c-7.38945,-3.81528 -16.61544,-9.42579 -18.99393,-17.9588c-3.18945,-11.44237 -2.04031,-16.77368 4.85374,-30.12614c12.03523,-23.30988 35.81483,-34.96596 53.11322,-26.03456c17.29839,8.93139 21.56504,35.06814 9.52981,58.37803z" fill="#848484" stroke="#000000" stroke-width="2" stroke-linecap="butt"/><path d="M201.30661,51.26512z" fill="#ffffff" stroke="none" stroke-width="0" stroke-linecap="butt"/><g fill="#ff0000" stroke="#000000" stroke-width="2" stroke-linecap="butt"><path d="M220.40813,162.00073c-2.23799,4.33454 -8.55436,5.5239 -14.10801,2.65648c-5.55365,-2.86742 -8.24152,-8.7058 -6.00354,-13.04034c2.23799,-4.33454 8.55436,-5.5239 14.10801,-2.65648c5.55365,2.86742 8.24152,8.7058 6.00354,13.04034z"/><path d="M196.21421,149.09487c-2.23799,4.33454 -8.55436,5.5239 -14.10801,2.65648c-5.55365,-2.86742 -8.24152,-8.7058 -6.00354,-13.04034c2.23799,-4.33454 8.55436,-5.5239 14.10801,-2.65648c5.55365,2.86742 8.24152,8.7058 6.00354,13.04034z"/><path d="M192.87922,155.35695c0.66772,2.6615 -1.98741,5.62101 -5.93039,6.61021c-3.94298,0.98922 -7.6807,-0.36646 -8.34842,-3.02797c-0.66772,-2.6615 1.98742,-5.62101 5.9304,-6.6102c3.94298,-0.98922 7.6807,0.36646 8.34842,3.02797z"/><path d="M205.90748,162.95184c1.47671,3.78748 0.60134,7.66588 -1.9552,8.66267c-2.55654,0.99677 -5.82615,-1.26554 -7.30286,-5.05301c-1.47671,-3.78748 -0.60133,-7.66588 1.9552,-8.66267c2.55654,-0.99677 5.82613,1.26553 7.30286,5.053z" data-paper-data="{&quot;index&quot;:null}"/><path d="M203.13796,159.40034c-1.32881,2.57365 -5.70027,2.95913 -9.76389,0.86101c-4.06364,-2.09812 -6.28067,-5.88532 -4.95187,-8.45897c1.3288,-2.57364 5.70027,-2.95914 9.7639,-0.86102c4.06364,2.09812 6.28067,5.88532 4.95186,8.45897z"/></g><g stroke="none" stroke-width="0" stroke-linecap="butt"><path d="M217.89841,73.80308c0,0 0.16119,-2.90936 0.21979,-3.96694c0.03906,-0.70476 0.51577,-1.42655 0.51577,-1.42655c0,0 0.59054,0.28208 1.82802,1.36028c1.34195,1.16925 2.95293,2.88066 3.8383,4.93506c2.78351,6.45879 17.62733,20.12941 28.8021,24.13838c3.17583,1.13935 6.30747,3.01452 8.21704,4.26623c1.15515,0.7572 0.44059,1.06186 0.44059,1.06186c0,0 0.09294,0.59944 -0.6967,0.8222c-1.00056,0.28227 -3.40268,0.95988 -3.40268,0.95988c0,0 -7.16754,0.23887 -11.03,-2.8565c-1.97233,-1.58063 -5.08548,-2.36609 -7.46992,-4.277c-4.0745,-3.26529 -7.76303,-6.22134 -11.4499,-9.17598c-3.11014,-2.49247 -5.58503,-6.18526 -7.1027,-7.40152c-2.70656,-2.16903 -2.70965,-8.4394 -2.70965,-8.4394z" fill="#000000"/><path d="M220.22017,79.08254c0,0 16.35898,-20.41293 19.74228,-24.63465c1.17062,-1.46073 2.15437,-1.97723 2.15437,-1.97723c0,0 1.52046,-0.206 2.77694,0.80096c3.48401,2.7921 19.83661,16.36455 26.27946,21.60072c1.6061,1.30529 1.26878,1.61612 1.26878,1.61612c0,0 0.50158,1.50717 -0.48842,2.74251c-3.18606,3.97559 -20.15938,25.15512 -20.15938,25.15512z" fill="#000000"/><path d="M223.96457,74.61987l2.59029,-3.23219c0,0 6.8709,9.20265 12.19498,13.43042c5.091,4.04266 19.08154,11.40575 19.08154,11.40575l-2.70198,3.37158c0,0 -3.1798,1.11416 -5.52197,-0.76286c-1.74802,-1.40088 -4.63479,-2.56981 -6.9702,-4.44141c-3.33175,-2.67007 -6.82241,-5.46748 -9.8963,-7.93093c-2.62957,-2.10736 -4.29365,-4.58546 -5.57441,-5.61186c-2.20839,-1.76983 -3.20191,-6.22849 -3.20191,-6.22849z" fill="#ffffff"/></g><path d="M81.55496,163.11906c4.63744,-6.67547 13.47032,-8.56244 19.72876,-4.2147c6.25845,4.34775 7.57253,13.2838 2.9351,19.95927c-4.63746,6.67546 -13.47031,8.56246 -19.72875,4.21472c-6.25845,-4.34775 -7.57254,-13.28382 -2.9351,-19.95929z" fill="#848484" stroke="#000000" stroke-width="2" stroke-linecap="butt"/><path d="M193.59335,176.89831c-2.0152,3.90306 -6.67228,5.50606 -10.40185,3.58043c-3.72958,-1.92564 -5.11937,-6.65072 -3.10417,-10.55378c2.0152,-3.90305 6.67228,-5.50606 10.40186,-3.58043c3.72958,1.92564 5.11936,6.65072 3.10416,10.55378z" fill="#6b0000" stroke="#000000" stroke-width="2" stroke-linecap="butt"/><path d="M183.72975,196.00219c-2.0152,3.90306 -6.67228,5.50606 -10.40185,3.58043c-3.72958,-1.92564 -5.11937,-6.65072 -3.10417,-10.55378c2.0152,-3.90305 6.67228,-5.50606 10.40186,-3.58043c3.72958,1.92564 5.11936,6.65072 3.10416,10.55378z" fill="#6b0000" stroke="#000000" stroke-width="2" stroke-linecap="butt"/><path d="M204.72891,93.66987c1.83759,-3.55905 6.21243,-4.95458 9.77149,-3.11699c3.55906,1.8376 4.95456,6.21243 3.11699,9.77149c-1.83759,3.55905 -6.21243,4.95458 -9.77149,3.11699c-3.55906,-1.8376 -4.95456,-6.21243 -3.11699,-9.77149z" fill="#ffffff" stroke="#000000" stroke-width="2" stroke-linecap="butt"/><path d="M215.48974,99.07546c-1.01303,1.96203 -2.90694,2.99876 -4.23018,2.31554c-1.32324,-0.6832 -1.57471,-2.82761 -0.56169,-4.78966c1.01303,-1.96203 2.90694,-2.99875 4.23019,-2.31553c1.32324,0.6832 1.57471,2.82759 0.56168,4.78965z" fill="#ff0000" stroke="#000000" stroke-width="2" stroke-linecap="butt"/><path d="M232.9844,108.25858c1.83759,-3.55905 6.21243,-4.95458 9.77149,-3.11699c3.55906,1.8376 4.95456,6.21243 3.11699,9.77149c-1.83759,3.55905 -6.21243,4.95458 -9.77149,3.11699c-3.55906,-1.8376 -4.95456,-6.21243 -3.11699,-9.77149z" fill="#ffffff" stroke="#000000" stroke-width="2" stroke-linecap="butt"/><path d="M243.96967,113.77434c-1.01303,1.96203 -2.90695,2.99875 -4.23018,2.31554c-1.32324,-0.6832 -1.5747,-2.8276 -0.56168,-4.78966c1.01303,-1.96203 2.90695,-2.99873 4.23018,-2.31554c1.32324,0.6832 1.57471,2.82759 0.56168,4.78965z" fill="#ff0000" stroke="#000000" stroke-width="2" stroke-linecap="butt"/><path d="M200.92119,105.09818c0.19091,0.39454 0.24384,0.74109 0.21322,1.04035c1.22736,0.10054 1.55437,1.42412 1.55437,1.42412c0.67339,2.74791 0.59251,5.6667 2.34389,8.05467c4.3743,5.96422 11.17708,8.08175 18.27871,8.71335c1.86691,0.16604 3.75609,-0.1817 5.62277,-0.01323c2.55928,0.23096 3.79118,1.03521 6.39388,0.59532c1.25843,0.18853 3.03675,-0.47062 3.77525,0.56561c0.72026,1.01063 -0.35253,2.47495 -0.7772,3.64105c-0.7136,1.95945 -3.33403,3.96463 -4.97886,5.06057c-5.9334,3.95347 -12.50549,2.78632 -18.92803,1.26783c-6.26777,-1.4819 -10.96124,-4.02603 -14.84303,-9.29004c-0.77468,-1.06934 -1.8038,-1.93582 -2.59557,-2.99255c-2.14359,-2.86096 -3.47316,-8.0002 -3.06477,-11.5517c0.26958,-2.34441 1.70103,-4.37288 2.92612,-6.29954l1.5953,-1.0797c0,0 1.67394,-0.81 2.48395,0.86393zM199.11801,108.61716c-0.70335,1.07791 -1.37829,2.24476 -1.51348,3.47199c-0.53681,4.87335 2.35763,8.31217 4.97572,11.87585c3.30877,4.58976 7.31816,6.59839 12.71377,7.86793c2.86008,0.67295 5.99912,1.89019 9.00377,1.57903c2.14354,-0.22198 5.21463,-1.12403 7.0267,-2.35306c1.0066,-0.68273 1.97432,-1.44897 2.80239,-2.34036c-1.92253,-0.00778 -3.37286,-0.51082 -5.54111,-0.69824c-1.88922,-0.16332 -3.80033,0.17805 -5.68882,0.00644c-8.14141,-0.73988 -15.92271,-3.41768 -20.8986,-10.25874c-2.03925,-2.80362 -2.10651,-5.95016 -2.88033,-9.15084z" fill="#000000" stroke="none" stroke-width="0.5" stroke-linecap="butt"/><path d="M202.03106,117.78566c4.97588,6.84104 12.69025,9.48655 20.83168,10.22644c1.88849,0.17162 3.7978,-0.16458 5.68705,-0.00129c2.16825,0.18742 3.69081,0.70809 5.61335,0.71587c-0.82805,0.89139 -1.79746,1.6631 -2.80407,2.34585c-1.81207,1.22903 -4.88986,2.14201 -7.03339,2.36399c-3.00464,0.31117 -6.1643,-0.89421 -9.02438,-1.56716c-5.39561,-1.26951 -9.44948,-3.31517 -12.75826,-7.90491c-2.6181,-3.56368 -5.50517,-7.02421 -4.96836,-11.89754c0.13518,-1.22722 0.8655,-2.34481 1.56886,-3.42271c0.77383,3.20069 0.84829,6.33785 2.88753,9.14148z" data-paper-data="{&quot;noHover&quot;:false,&quot;origItem&quot;:[&quot;Path&quot;,{&quot;applyMatrix&quot;:true,&quot;segments&quot;:[[[451.78511,262.62843],[4.31197,4.97793],[-0.26089,2.56092]],[[452.28118,270.18723],[-0.8858,-2.30496],[3.51753,9.15302]],[[472.02019,286.72642],[-7.92245,-3.93081],[10.09135,5.12055]],[[501.83311,289.04311],[-10.75343,2.69464],[5.70014,-1.42837]],[[519.28261,283.58786],[-5.05406,3.30988],[3.6056,-2.36129]],[[529.61078,272.9589],[-2.09256,3.84679],[1.16242,-2.1369]],[[532.44352,266.22851],[-0.65366,2.34389],[-3.4237,1.75021]],[[521.95572,270.07189],[4.02518,-1.6564],[-3.5072,1.44324]],[[511.85199,275.30306],[3.51352,-1.42778],[-15.14706,6.15527]],[[465.30009,276.24761],[15.11965,7.59167],[-6.1964,-3.11125]]],&quot;closed&quot;:true}]}" fill="#ffffff" stroke="none" stroke-width="0.5" stroke-linecap="butt"/><path d="M201.78861,115.17317l-2.90068,5.61805" fill="none" stroke="#000000" stroke-width="2" stroke-linecap="round"/><path d="M205.7435,118.05228l-3.6685,7.10519" fill="none" stroke="#000000" stroke-width="2" stroke-linecap="round"/><path d="M205.9392,128.6176l3.83913,-7.43566" fill="none" stroke="#000000" stroke-width="2" stroke-linecap="round"/><path d="M210.62959,132.5043l4.60696,-8.92278" fill="none" stroke="#000000" stroke-width="2" stroke-linecap="round"/><path d="M216.02943,132.99019l4.09508,-7.93137" fill="none" stroke="#000000" stroke-width="2" stroke-linecap="round"/><path d="M221.83428,134.31301l4.09507,-7.93136" fill="none" stroke="#000000" stroke-width="2" stroke-linecap="round"/><path d="M230.89708,127.69083l-3.0713,5.94852l-1.36503,2.64378" fill="none" stroke="#000000" stroke-width="2" stroke-linecap="round"/><path d="M225.01625,117.19598c-1.56248,3.02619 -5.34862,4.17856 -8.45661,2.57386c-3.10798,-1.6047 -4.36086,-5.35877 -2.7984,-8.38498c1.56248,-3.02619 5.34862,-4.17856 8.45661,-2.57386c3.10798,1.6047 4.36086,5.35877 2.7984,8.38498z" fill="#ff0000" stroke="#000000" stroke-width="2" stroke-linecap="butt"/><path d="M201.18557,108.90762l-3.0713,5.94852l-1.36503,2.64378" fill="none" stroke="#000000" stroke-width="2" stroke-linecap="round"/><path d="M232.63428,199.67107c-5.52083,1.28758 -6.80839,-4.23323 -6.80839,-4.23323l-1.1361,-4.88173c-4.79213,-16.24628 -11.41577,-31.15249 -22.94762,-43.80707c-3.17604,-3.48526 -6.96483,-6.28419 -10.28335,-9.62816c0,0 -3.98733,-4.0297 0.04235,-8.01702c4.0297,-3.98733 8.01702,0.04236 8.01702,0.04236c3.44065,3.48887 7.33189,6.39347 10.65246,10.01932c12.77692,13.95157 20.18486,30.55066 25.48174,48.49747l1.21511,5.19967c0,0 1.28758,5.52082 -4.23323,6.80839z" data-paper-data="{&quot;index&quot;:null}" fill="#000000" stroke="none" stroke-width="0.5" stroke-linecap="butt"/><path d="M5.01503,350.12012v-343.84384h364.86486v343.84384z" fill="none" stroke="#000000" stroke-width="0" stroke-linecap="butt"/><g stroke-linecap="butt"><path d="M22.25001,336.55006v-320h204v320z" fill="#47ff00" stroke="none" stroke-width="0"/><path d="M233.98931,185.97539c7.84308,2.13396 12.57931,9.82476 10.57867,17.17789c-2.00065,7.35313 -9.98056,11.58409 -17.82364,9.45014c-7.84308,-2.13396 -12.5793,-9.82473 -10.57866,-17.17786c2.00065,-7.35313 9.98055,-11.58412 17.82364,-9.45016z" data-paper-data="{&quot;index&quot;:null}" fill="#848484" stroke="#000000" stroke-width="2"/></g></g></g></svg>