<svg version="1.1" xmlns="http://www.w3.org/2000/svg" xmlns:xlink="http://www.w3.org/1999/xlink" width="364.86486" height="343.84384" viewBox="0,0,364.86486,343.84384"><g transform="translate(-5.01502,-6.27628)"><g data-paper-data="{&quot;isPaintingLayer&quot;:true}" fill-rule="nonzero" stroke-linecap="butt" stroke-linejoin="miter" stroke-miterlimit="10" stroke-dasharray="" stroke-dashoffset="0" style="mix-blend-mode: normal"><path d="" fill="#6b0000" stroke="none" stroke-width="0.5"/><g><path d="M236.34403,202.16747c-4.93347,3.83712 -8.77058,-1.09635 -8.77058,-1.09635l-3.39051,-4.36351c-12.296,-14.05492 -25.80733,-25.92282 -43.19382,-33.27109c-4.78849,-2.02382 -9.87376,-3.07767 -14.73971,-4.89427c0,0 -5.85207,-2.19451 -3.65756,-8.04657c2.19451,-5.85206 8.04657,-3.65755 8.04657,-3.65755c5.0551,1.90532 10.29172,3.01769 15.28981,5.11557c19.2317,8.07226 34.30961,21.27319 47.8958,36.79781l3.61635,4.64537c0,0 3.83712,4.93346 -1.09635,8.77058z" data-paper-data="{&quot;index&quot;:null}" fill="#000000" stroke="none" stroke-width="0.5"/><g><path d="M22.25,337.05005v-320h204v320z" fill="#47ff00" stroke="none" stroke-width="0"/><path d="M233.9893,185.97537c7.84308,2.13396 12.57931,9.82476 10.57867,17.17789c-2.00065,7.35313 -9.98056,11.58409 -17.82364,9.45014c-7.84308,-2.13396 -12.5793,-9.82473 -10.57866,-17.17786c2.00065,-7.35313 9.98055,-11.58412 17.82364,-9.45016z" data-paper-data="{&quot;index&quot;:null}" fill="#848484" stroke="#000000" stroke-width="2"/></g></g><path d="M5.01502,350.12012v-343.84384h364.86486v343.84384z" fill="none" stroke="#000000" stroke-width="0"/></g></g></svg>