<svg version="1.1" xmlns="http://www.w3.org/2000/svg" xmlns:xlink="http://www.w3.org/1999/xlink" width="364.86486" height="343.84384" viewBox="0,0,364.86486,343.84384"><g transform="translate(-5.01503,-6.27628)"><g data-paper-data="{&quot;isPaintingLayer&quot;:true}" fill-rule="nonzero" stroke-linejoin="miter" stroke-miterlimit="10" stroke-dasharray="" stroke-dashoffset="0" style="mix-blend-mode: normal"><path d="M93.63581,172.44069c-3.14374,-5.40181 2.25806,-8.54553 2.25806,-8.54553l5.08943,-2.95892c18.4006,-9.32825 37.3173,-15.94388 58.17217,-16.25071c5.41993,-0.07974 10.69313,0.84381 16.09405,0.964c0,0 6.24821,0.14951 6.09871,6.39772c-0.14951,6.24821 -6.39774,6.0987 -6.39774,6.0987c-5.1923,-0.13185 -10.30325,-1.05317 -15.50109,-0.96386c-18.87278,0.32426 -35.83846,6.28826 -52.49337,14.73492l-4.77467,2.78177c0,0 -5.4018,3.14374 -8.54553,-2.25806z" fill="#000000" stroke="none" stroke-width="0.5" stroke-linecap="butt"/><path d="M186.00523,145.23359l3.54749,-8.8128l16.64494,6.70023l-3.54749,8.8128z" fill="#3c3c3c" stroke="#000000" stroke-width="2" stroke-linecap="butt"/><path d="M244.98909,124.44738c-7.14054,17.73878 -28.00502,26.05025 -46.60212,18.56421c-18.5971,-7.48605 -27.8845,-27.93481 -20.74394,-45.67359c7.14054,-17.73878 28.00502,-26.05024 46.60212,-18.5642c18.5971,7.48605 27.8845,27.93481 20.74395,45.67358z" fill="#848484" stroke="#000000" stroke-width="2" stroke-linecap="butt"/><path d="M210.17404,202.87189c-6.03802,14.99984 -9.60022,19.52054 -21.30017,24.05852c-7.28211,2.82447 -18.58434,-1.04878 -25.51263,-3.83769c-7.71469,-3.10546 -17.42619,-7.82601 -20.59444,-16.09835c-4.24849,-11.09282 -3.6044,-16.50841 2.00704,-30.44856c9.79612,-24.33584 32.37778,-38.17066 50.43754,-30.90092c18.05976,7.26974 24.75878,32.89116 14.96266,57.22701z" fill="#848484" stroke="#000000" stroke-width="2" stroke-linecap="butt"/><path d="M201.3066,51.26512z" fill="#ffffff" stroke="none" stroke-width="0" stroke-linecap="butt"/><g fill="#ff0000" stroke="#000000" stroke-width="2" stroke-linecap="butt"><path d="M215.675,161.3942c-1.82162,4.52532 -7.99861,6.30181 -13.7967,3.96786c-5.79809,-2.33395 -9.02165,-7.89452 -7.20004,-12.41984c1.82162,-4.52532 7.99861,-6.30181 13.7967,-3.96786c5.79809,2.33395 9.02165,7.89452 7.20004,12.41984z"/><path d="M190.37736,150.81419c-1.82162,4.52532 -7.99861,6.30181 -13.7967,3.96786c-5.79809,-2.33395 -9.02165,-7.89452 -7.20004,-12.41984c1.82162,-4.52532 7.99861,-6.30181 13.7967,-3.96786c5.79809,2.33395 9.02165,7.89452 7.20004,12.41984z"/><path d="M187.64434,157.36143c0.91438,2.58715 -1.4515,5.78262 -5.28433,7.13724c-3.83283,1.35464 -7.68122,0.35547 -8.5956,-2.23169c-0.91438,-2.58715 1.45151,-5.78262 5.28434,-7.13724c3.83283,-1.35464 7.68122,-0.35547 8.5956,2.23169z"/><path d="M201.32745,163.70103c1.8254,3.6323 1.31762,7.5757 -1.13417,8.80785c-2.45179,1.23214 -5.91916,-0.71357 -7.74456,-4.34586c-1.8254,-3.6323 -1.31761,-7.5757 1.13417,-8.80785c2.45179,-1.23214 5.91914,0.71356 7.74456,4.34585z" data-paper-data="{&quot;index&quot;:null}"/><path d="M198.23707,160.42491c-1.08159,2.68693 -5.39763,3.48067 -9.64011,1.7729c-4.2425,-1.70777 -6.80493,-5.27036 -5.72335,-7.95729c1.08158,-2.68692 5.39763,-3.48068 9.64012,-1.77291c4.2425,1.70777 6.80493,5.27036 5.72334,7.95729z"/></g><g stroke="none" stroke-width="0" stroke-linecap="butt"><path d="M204.90493,73.82063c0,0 -0.11237,-2.91165 -0.15321,-3.97007c-0.02721,-0.70532 0.37971,-1.46863 0.37971,-1.46863c0,0 0.61439,0.22545 1.94753,1.18285c1.44569,1.03825 3.21007,2.59103 4.28421,4.55334c3.37696,6.16928 19.43743,18.38756 30.93892,21.33086c3.26868,0.83649 6.56238,2.4097 8.58092,3.47681c1.22107,0.64553 0.53823,1.01586 0.53823,1.01586c0,0 0.14875,0.58808 -0.61652,0.88391c-0.96968,0.37486 -3.29766,1.27476 -3.29766,1.27476c0,0 -7.11355,0.91001 -11.24928,-1.80949c-2.11187,-1.38869 -5.28496,-1.87873 -7.83811,-3.5576c-4.36277,-2.86878 -8.31227,-5.46588 -12.25999,-8.06174c-3.33018,-2.18981 -6.14049,-5.63422 -7.76553,-6.70279c-2.89805,-1.90564 -3.48918,-8.14809 -3.48918,-8.14809z" fill="#000000"/><path d="M207.71157,78.85908c0,0 14.3725,-21.85715 17.34497,-26.37756c1.02847,-1.56408 1.95944,-2.17056 1.95944,-2.17056c0,0 1.49444,-0.34768 2.83982,0.537c3.73051,2.45305 21.2839,14.4321 28.18941,19.04096c1.72143,1.14891 1.41475,1.49001 1.41475,1.49001c0,0 0.64072,1.45349 -0.22907,2.77623c-2.79918,4.25687 -17.71142,26.93485 -17.71142,26.93485z" fill="#000000"/><path d="M211.02095,74.06492l2.27575,-3.46087c0,0 7.70367,8.51772 13.40077,12.22755c5.44769,3.5474 20.0671,9.56596 20.0671,9.56596l-2.37388,3.61012c0,0 -3.0613,1.40746 -5.56918,-0.24163c-1.87169,-1.23077 -4.85537,-2.12382 -7.35601,-3.76815c-3.56747,-2.34584 -7.3051,-4.80356 -10.59647,-6.96787c-2.81561,-1.85146 -4.70476,-4.16258 -6.07614,-5.06434c-2.36464,-1.55492 -3.77192,-5.90076 -3.77192,-5.90076z" fill="#ffffff"/></g><path d="M80.55495,167.11906c4.63744,-6.67547 13.47032,-8.56244 19.72876,-4.2147c6.25845,4.34775 7.57253,13.2838 2.9351,19.95927c-4.63746,6.67546 -13.47031,8.56246 -19.72875,4.21472c-6.25845,-4.34775 -7.57254,-13.28382 -2.9351,-19.95929z" fill="#848484" stroke="#000000" stroke-width="2" stroke-linecap="butt"/><path d="M190.37554,178.74088c-1.64028,4.07485 -6.1265,6.10754 -10.02022,4.54016c-3.89373,-1.56738 -5.72053,-6.1413 -4.08025,-10.21615c1.64028,-4.07484 6.1265,-6.10754 10.02023,-4.54016c3.89373,1.56738 5.72052,6.1413 4.08024,10.21615z" fill="#6b0000" stroke="#000000" stroke-width="2" stroke-linecap="butt"/><path d="M182.34702,198.6856c-1.64028,4.07485 -6.1265,6.10754 -10.02022,4.54016c-3.89373,-1.56738 -5.72053,-6.1413 -4.08025,-10.21615c1.64028,-4.07484 6.1265,-6.10754 10.02023,-4.54016c3.89373,1.56738 5.72052,6.1413 4.08024,10.21615z" fill="#6b0000" stroke="#000000" stroke-width="2" stroke-linecap="butt"/><path d="M193.65664,94.83493c1.49571,-3.7157 5.7204,-5.51536 9.4361,-4.01965c3.71571,1.49572 5.51534,5.7204 4.01965,9.4361c-1.49571,3.7157 -5.7204,5.51536 -9.4361,4.01965c-3.71571,-1.49572 -5.51534,-5.7204 -4.01965,-9.4361z" fill="#ffffff" stroke="#000000" stroke-width="2" stroke-linecap="butt"/><path d="M204.87698,99.20752c-0.82456,2.04839 -2.6129,3.25816 -3.99438,2.70205c-1.38148,-0.55609 -1.83295,-2.66747 -1.0084,-4.71587c0.82456,-2.04839 2.6129,-3.25815 3.99439,-2.70204c1.38148,0.55609 1.83295,2.66745 1.00839,4.71586z" fill="#ff0000" stroke="#000000" stroke-width="2" stroke-linecap="butt"/><path d="M223.15577,106.70947c1.49571,-3.7157 5.7204,-5.51536 9.4361,-4.01965c3.71571,1.49572 5.51534,5.7204 4.01965,9.4361c-1.49571,3.7157 -5.7204,5.51536 -9.4361,4.01965c-3.71571,-1.49572 -5.51534,-5.7204 -4.01965,-9.4361z" fill="#ffffff" stroke="#000000" stroke-width="2" stroke-linecap="butt"/><path d="M234.60989,111.17069c-0.82456,2.04839 -2.61291,3.25816 -3.99438,2.70205c-1.38148,-0.55609 -1.83294,-2.66746 -1.00839,-4.71587c0.82456,-2.04839 2.61291,-3.25814 3.99438,-2.70205c1.38148,0.55609 1.83295,2.66745 1.00839,4.71586z" fill="#ff0000" stroke="#000000" stroke-width="2" stroke-linecap="butt"/><path d="M190.93747,106.56997c0.22707,0.3749 0.31227,0.71496 0.30985,1.01577c1.23138,-0.01501 1.68108,1.27207 1.68108,1.27207c0.92813,2.67265 1.12134,5.58616 3.08895,7.79935c4.91436,5.5277 11.88575,6.99791 19.01531,6.96072c1.87425,-0.00978 3.7225,-0.53316 5.59675,-0.54049c2.56966,-0.01007 3.87156,0.6751 6.42153,-0.00694c1.27056,0.06968 2.97923,-0.75334 3.81166,0.20906c0.81187,0.93863 -0.11887,2.4971 -0.43231,3.69789c-0.52669,2.01774 -2.94752,4.25983 -4.48232,5.5052c-5.53648,4.4925 -12.18907,3.94684 -18.72571,3.03736c-6.37912,-0.88756 -11.2905,-2.98031 -15.64886,-7.85708c-0.87155,-0.99198 -1.9774,-1.75812 -2.86478,-2.73594c-2.40245,-2.64732 -4.20813,-7.63922 -4.13461,-11.21337c0.04853,-2.35936 1.28343,-4.51313 2.32244,-6.5462l1.48701,-1.22455c0,0 1.5906,-0.96342 2.55402,0.62717zM189.47225,110.24255c-0.59916,1.13912 -1.1617,2.36413 -1.1812,3.59863c-0.07741,4.90222 3.12678,8.05443 6.06754,11.35687c3.72463,4.25923 7.90472,5.88299 13.39561,6.64092c2.91059,0.40176 6.14995,1.31925 9.11217,0.72767c2.11327,-0.42203 5.08623,-1.60812 6.77506,-3.00167c0.93814,-0.77412 1.82973,-1.62774 2.57055,-2.59286c-1.91479,0.17255 -3.4059,-0.19225 -5.58217,-0.1755c-1.89621,0.01458 -3.76688,0.53367 -5.66314,0.53992c-8.17492,0.0269 -16.17305,-1.90934 -21.76859,-8.2536c-2.29319,-2.60002 -2.65525,-5.72638 -3.72583,-8.84038z" fill="#000000" stroke="none" stroke-width="0.5" stroke-linecap="butt"/><path d="M193.23231,119.09745c5.59552,6.34424 13.52399,8.25461 21.69893,8.22772c1.89626,-0.00624 3.76563,-0.52002 5.66186,-0.53463c2.17627,-0.01675 3.74095,0.35884 5.65575,0.18628c-0.7408,0.96512 -1.63357,1.82434 -2.57171,2.59848c-1.68882,1.39355 -4.66743,2.59115 -6.78069,3.01318c-2.96222,0.59158 -6.22099,-0.31216 -9.13158,-0.71392c-5.49089,-0.7579 -9.71874,-2.41436 -13.44337,-6.67357c-2.94077,-3.30244 -6.13966,-6.47696 -6.06225,-11.37916c0.01949,-1.23449 0.64178,-2.41564 1.24095,-3.55476c1.07059,3.11401 1.43893,6.23036 3.73212,8.83039z" data-paper-data="{&quot;noHover&quot;:false,&quot;origItem&quot;:[&quot;Path&quot;,{&quot;applyMatrix&quot;:true,&quot;segments&quot;:[[[451.78511,262.62843],[4.31197,4.97793],[-0.26089,2.56092]],[[452.28118,270.18723],[-0.8858,-2.30496],[3.51753,9.15302]],[[472.02019,286.72642],[-7.92245,-3.93081],[10.09135,5.12055]],[[501.83311,289.04311],[-10.75343,2.69464],[5.70014,-1.42837]],[[519.28261,283.58786],[-5.05406,3.30988],[3.6056,-2.36129]],[[529.61078,272.9589],[-2.09256,3.84679],[1.16242,-2.1369]],[[532.44352,266.22851],[-0.65366,2.34389],[-3.4237,1.75021]],[[521.95572,270.07189],[4.02518,-1.6564],[-3.5072,1.44324]],[[511.85199,275.30306],[3.51352,-1.42778],[-15.14706,6.15527]],[[465.30009,276.24761],[15.11965,7.59167],[-6.1964,-3.11125]]],&quot;closed&quot;:true}]}" fill="#ffffff" stroke="none" stroke-width="0.5" stroke-linecap="butt"/><path d="M192.74592,116.51921l-2.36102,5.86532" fill="none" stroke="#000000" stroke-width="2" stroke-linecap="round"/><path d="M193.96741,126.43265l2.98599,-7.41792" fill="none" stroke="#000000" stroke-width="2" stroke-linecap="round"/><path d="M201.26395,121.7522l-3.12487,7.76293" fill="none" stroke="#000000" stroke-width="2" stroke-linecap="round"/><path d="M203.1733,132.94483l3.74985,-9.31551" fill="none" stroke="#000000" stroke-width="2" stroke-linecap="round"/><path d="M211.92812,124.6417l-3.33321,8.28046" fill="none" stroke="#000000" stroke-width="2" stroke-linecap="round"/><path d="M217.83143,125.41431l-3.3332,8.28045" fill="none" stroke="#000000" stroke-width="2" stroke-linecap="round"/><path d="M222.90004,126.25183l-2.4999,6.21034l-1.11107,2.76014" fill="none" stroke="#000000" stroke-width="2" stroke-linecap="round"/><path d="M216.0609,116.35475c-1.27179,3.15939 -4.93317,4.66175 -8.17796,3.3556c-3.24477,-1.30615 -4.8442,-4.92618 -3.57243,-8.08558c1.27179,-3.15939 4.93317,-4.66175 8.17796,-3.3556c3.24477,1.30615 4.8442,4.92618 3.57243,8.08558z" fill="#ff0000" stroke="#000000" stroke-width="2" stroke-linecap="butt"/><path d="M191.55794,110.33783l-2.4999,6.21034l-1.11107,2.76014" fill="none" stroke="#000000" stroke-width="2" stroke-linecap="round"/><path d="M232.77481,194.59473c-5.15005,2.36944 -7.51949,-2.7806 -7.51949,-2.7806l-2.09278,-4.55438c-7.95535,-14.95388 -17.43599,-28.22735 -31.27303,-38.30992c-3.81092,-2.77688 -8.08438,-4.75843 -12.00654,-7.36831c0,0 -4.71498,-3.14741 -1.56758,-7.86239c3.14741,-4.71498 7.86238,-1.56757 7.86238,-1.56757c4.07087,2.72732 8.46591,4.79182 12.44664,7.67743c15.3171,11.10327 25.90585,25.87777 34.69699,42.39626l2.23399,4.84999c0,0 2.36945,5.15004 -2.7806,7.51949z" data-paper-data="{&quot;index&quot;:null}" fill="#000000" stroke="none" stroke-width="0.5" stroke-linecap="butt"/><path d="M22.25001,337.05006v-320h204v320z" fill="#47ff00" stroke="none" stroke-width="0" stroke-linecap="butt"/><path d="M233.98931,185.97539c7.84308,2.13396 12.57931,9.82476 10.57867,17.17789c-2.00065,7.35313 -9.98056,11.58409 -17.82364,9.45014c-7.84308,-2.13396 -12.5793,-9.82473 -10.57866,-17.17786c2.00065,-7.35313 9.98055,-11.58412 17.82364,-9.45016z" data-paper-data="{&quot;index&quot;:null}" fill="#848484" stroke="#000000" stroke-width="2" stroke-linecap="butt"/><path d="M5.01503,350.12012v-343.84384h364.86486v343.84384z" fill="none" stroke="#000000" stroke-width="0" stroke-linecap="butt"/></g></g></svg>