<svg version="1.1" xmlns="http://www.w3.org/2000/svg" xmlns:xlink="http://www.w3.org/1999/xlink" width="364.86486" height="343.84384" viewBox="0,0,364.86486,343.84384"><g transform="translate(-5.01502,-6.27628)"><g data-paper-data="{&quot;isPaintingLayer&quot;:true}" fill-rule="nonzero" stroke-linejoin="miter" stroke-miterlimit="10" stroke-dasharray="" stroke-dashoffset="0" style="mix-blend-mode: normal"><path d="M228.26848,205.03162c-4.52278,-3.41785 -1.10493,-7.94063 -1.10493,-7.94063l3.02377,-3.99737c9.41579,-14.0801 -14.66735,-25.37585 -9.02457,-24.83163c1.82587,0.1761 5.52888,-8.31198 7.99791,-5.82013c5.16142,5.20913 17.3003,26.70059 10.26593,37.22325l-3.21748,4.26157c0,0 -3.41784,4.52278 -7.94063,1.10493z" data-paper-data="{&quot;index&quot;:null}" fill="#000000" stroke="none" stroke-width="0.5" stroke-linecap="butt"/><path d="M113.54332,150.53399c-2.13571,-5.87379 3.73806,-8.00948 3.73806,-8.00948l5.53358,-2.00924c19.76346,-5.91643 39.55366,-9.07171 60.13225,-5.67444c5.34813,0.88291 10.37389,2.72718 15.66784,3.80347c0,0 6.12261,1.25545 4.86717,7.37806c-1.25545,6.12261 -7.37807,4.86716 -7.37807,4.86716c-5.08658,-1.05077 -9.95305,-2.86406 -15.08431,-3.69816c-18.63102,-3.02854 -36.38556,-0.16848 -54.27463,5.18999l-5.19239,1.89073c0,0 -5.87378,2.13572 -8.00948,-3.73806z" fill="#000000" stroke="none" stroke-width="0.5" stroke-linecap="butt"/><path d="M209.27398,140.14281l5.05445,-8.0438l15.19251,9.54646l-5.05445,8.0438z" fill="#3c3c3c" stroke="#000000" stroke-width="2" stroke-linecap="butt"/><path d="M271.00956,130.14878c-10.17381,16.1909 -32.18172,20.66963 -49.15604,10.00354c-16.97432,-10.66609 -22.48724,-32.43798 -12.31341,-48.62888c10.17381,-16.1909 32.18172,-20.66962 49.15604,-10.00353c16.97432,10.66609 22.48724,32.43798 12.31342,48.62887z" fill="#848484" stroke="#000000" stroke-width="2" stroke-linecap="butt"/><path d="M222.83565,201.15416c-8.60294,13.69096 -12.91054,17.5081 -25.2299,19.89879c-7.66764,1.48798 -18.1036,-4.32864 -24.42733,-8.30226c-7.04151,-4.42465 -15.76168,-10.79297 -17.41234,-19.49611c-2.21348,-11.67051 -0.61898,-16.88597 7.37618,-29.60971c13.95747,-22.2123 38.63506,-31.8222 55.11893,-21.4643c16.48387,10.3579 18.53193,36.7613 4.57446,58.9736z" fill="#848484" stroke="#000000" stroke-width="2" stroke-linecap="butt"/><path d="M216.30659,46.26512z" fill="#ffffff" stroke="none" stroke-width="0" stroke-linecap="butt"/><g fill="#ff0000" stroke="#000000" stroke-width="2" stroke-linecap="butt"><path d="M235.60669,161.30997c-2.59543,4.13044 -8.98959,4.78308 -14.28174,1.45768c-5.29215,-3.3254 -7.47826,-9.36959 -4.88283,-13.50003c2.59543,-4.13044 8.98959,-4.78308 14.28174,-1.45768c5.29215,3.3254 7.47826,9.36959 4.88283,13.50003z"/><path d="M212.58689,146.41044c-2.59543,4.13044 -8.98959,4.78308 -14.28174,1.45768c-5.29215,-3.3254 -7.47826,-9.36959 -4.88283,-13.50003c2.59543,-4.13044 8.98959,-4.78308 14.28174,-1.45768c5.29215,3.3254 7.47826,9.36959 4.88283,13.50003z"/><path d="M208.73586,152.36907c0.44097,2.70832 -2.4542,5.43346 -6.46654,6.08673c-4.01234,0.65329 -7.62247,-1.01266 -8.06344,-3.72099c-0.44097,-2.70832 2.45421,-5.43345 6.46655,-6.08672c4.01234,-0.65329 7.62247,1.01266 8.06344,3.72099z"/><path d="M221.07747,161.03527c1.15216,3.89849 -0.04705,7.68929 -2.67852,8.467c-2.63147,0.7777 -5.69872,-1.75219 -6.85088,-5.65067c-1.15216,-3.89849 0.04706,-7.68929 2.67852,-8.467c2.63147,-0.7777 5.69871,1.75218 6.85088,5.65066z" data-paper-data="{&quot;index&quot;:null}"/><path d="M218.61722,157.2629c-1.54105,2.45247 -5.92944,2.46804 -9.80172,0.03482c-3.8723,-2.43322 -5.76216,-6.39384 -4.22113,-8.84631c1.54103,-2.45246 5.92944,-2.46805 9.80173,-0.03483c3.8723,2.43322 5.76216,6.39384 4.22112,8.84631z"/></g><g stroke="none" stroke-width="0" stroke-linecap="butt"><path d="M240.5412,73.2147c0,0 0.40588,-2.88541 0.55343,-3.93429c0.09833,-0.69896 0.63419,-1.37799 0.63419,-1.37799c0,0 0.56466,0.33086 1.70683,1.50955c1.2386,1.27822 2.69957,3.11934 3.4086,5.24107c2.2291,6.67045 15.86761,21.54379 26.66464,26.48055c3.06847,1.40302 6.03088,3.53552 7.82813,4.94376c1.0872,0.85189 0.3495,1.09522 0.3495,1.09522c0,0 0.04208,0.60514 -0.76353,0.76054c-1.0208,0.19691 -3.47148,0.66961 -3.47148,0.66961c0,0 -7.16216,-0.36622 -10.74993,-3.77619c-1.83206,-1.74127 -4.86791,-2.78638 -7.08277,-4.89151c-3.78472,-3.59716 -7.21092,-6.85363 -10.63558,-10.10858c-2.88894,-2.74579 -5.04372,-6.63408 -6.45345,-7.97395c-2.51407,-2.38948 -1.98854,-8.63779 -1.98854,-8.63779z" fill="#000000"/><path d="M242.40962,78.67112c0,0 18.02161,-18.96116 21.74877,-22.88263c1.2896,-1.35685 2.31338,-1.78858 2.31338,-1.78858c0,0 1.53241,-0.07708 2.69953,1.03221c3.23623,3.07587 18.38642,17.97858 24.36491,23.73925c1.49034,1.43604 1.12802,1.71733 1.12802,1.71733c0,0 0.37274,1.54409 -0.71788,2.69157c-3.50988,3.69285 -22.20826,23.36608 -22.20826,23.36608z" fill="#000000"/><path d="M246.51691,74.53999l2.85355,-3.00232c0,0 6.07063,9.74913 11.01934,14.41068c4.73206,4.45746 18.05207,12.97377 18.05207,12.97377l-2.9766,3.13179c0,0 -3.26241,0.84213 -5.43801,-1.22566c-1.6237,-1.54325 -4.40165,-2.95139 -6.57097,-5.01321c-3.09479,-2.94144 -6.3372,-6.02317 -9.19247,-8.73698c-2.44255,-2.32153 -3.8918,-4.9311 -5.08147,-6.06182c-2.05133,-1.9497 -2.66543,-6.47625 -2.66543,-6.47625z" fill="#ffffff"/></g><path d="M101.61384,142.97645c5.748,-5.74702 14.77552,-6.0373 20.16351,-0.64838c5.388,5.38893 5.09617,14.41637 -0.65182,20.16339c-5.74801,5.74701 -14.77551,6.03732 -20.16351,0.6484c-5.388,-5.38893 -5.09617,-14.41639 0.65182,-20.16341z" fill="#848484" stroke="#000000" stroke-width="2" stroke-linecap="butt"/><path d="M207.63147,173.89395c-2.33707,3.71928 -7.1127,4.92397 -10.66666,2.69078c-3.55396,-2.23319 -4.54047,-7.05862 -2.20341,-10.7779c2.33706,-3.71927 7.1127,-4.92397 10.66667,-2.69078c3.55396,2.23319 4.54046,7.05862 2.2034,10.7779z" fill="#6b0000" stroke="#000000" stroke-width="2" stroke-linecap="butt"/><path d="M196.19246,192.09832c-2.33707,3.71928 -7.1127,4.92397 -10.66666,2.69078c-3.55396,-2.23319 -4.54047,-7.05862 -2.20341,-10.7779c2.33706,-3.71927 7.1127,-4.92397 10.66667,-2.69078c3.55396,2.23319 4.54046,7.05862 2.2034,10.7779z" fill="#6b0000" stroke="#000000" stroke-width="2" stroke-linecap="butt"/><path d="M225.74377,91.90056c2.13108,-3.39147 6.608,-4.41322 9.99947,-2.28213c3.39148,2.13109 4.4132,6.608 2.28213,9.99947c-2.13108,3.39147 -6.608,4.41322 -9.99947,2.28213c-3.39148,-2.13109 -4.4132,-6.608 -2.28213,-9.99947z" fill="#ffffff" stroke="#000000" stroke-width="2" stroke-linecap="butt"/><path d="M236.01057,98.19407c-1.17483,1.86965 -3.1494,2.74302 -4.41033,1.95068c-1.26093,-0.79232 -1.33073,-2.9503 -0.15591,-4.81996c1.17483,-1.86965 3.1494,-2.74301 4.41034,-1.95067c1.26093,0.79232 1.33073,2.95028 0.1559,4.81995z" fill="#ff0000" stroke="#000000" stroke-width="2" stroke-linecap="butt"/><path d="M252.66881,108.81934c2.13108,-3.39147 6.608,-4.41322 9.99947,-2.28213c3.39148,2.13109 4.4132,6.608 2.28213,9.99947c-2.13108,3.39147 -6.608,4.41322 -9.99947,2.28213c-3.39148,-2.13109 -4.4132,-6.608 -2.28213,-9.99947z" fill="#ffffff" stroke="#000000" stroke-width="2" stroke-linecap="butt"/><path d="M263.14996,115.24157c-1.17483,1.86965 -3.14941,2.74302 -4.41033,1.95068c-1.26093,-0.79232 -1.33072,-2.95029 -0.1559,-4.81996c1.17483,-1.86965 3.14941,-2.743 4.41033,-1.95068c1.26093,0.79232 1.33073,2.95028 0.1559,4.81995z" fill="#ff0000" stroke="#000000" stroke-width="2" stroke-linecap="butt"/><path d="M220.98616,102.96718c0.15697,0.40923 0.1805,0.75901 0.12476,1.05462c1.21452,0.20365 1.42878,1.55009 1.42878,1.55009c0.43934,2.7949 0.11269,5.69648 1.65652,8.22359c3.85593,6.31175 10.45598,8.99523 17.47908,10.22327c1.84626,0.32283 3.75804,0.13559 5.60387,0.46083c2.5307,0.4459 3.69042,1.35113 6.32093,1.13222c1.23805,0.29395 3.06561,-0.21294 3.71413,0.88186c0.6325,1.06775 -0.55992,2.43642 -1.08139,3.56257c-0.87624,1.89232 -3.65639,3.66945 -5.38775,4.62283c-6.24556,3.4392 -12.69587,1.72216 -18.96753,-0.33237c-6.12053,-2.00501 -10.58281,-4.93576 -14.00702,-10.50828c-0.68177,-1.13084 -1.63419,-2.08099 -2.33405,-3.20071c-1.89477,-3.03149 -2.78635,-8.26452 -2.08002,-11.76895c0.46626,-2.31334 2.06362,-4.21391 3.44678,-6.03044l1.68064,-0.94137c0,0 1.73627,-0.666 2.40227,1.07026zM218.89273,106.32162c-0.79172,1.01478 -1.56263,2.12058 -1.80079,3.33204c-0.94574,4.81075 1.6485,8.48133 3.95684,12.25304c2.91006,4.85236 6.73585,7.19184 12.00522,8.91172c2.79317,0.91167 5.81842,2.38921 8.8386,2.33245c2.15462,-0.04049 5.29082,-0.68042 7.20006,-1.75231c1.06058,-0.59544 2.08944,-1.27737 2.98971,-2.09578c-1.91503,-0.16983 -3.31779,-0.79334 -5.46252,-1.16288c-1.86873,-0.322 -3.80181,-0.14296 -5.66911,-0.47317c-8.05006,-1.42359 -15.57791,-4.74784 -19.95937,-11.98403c-1.79563,-2.96556 -1.5974,-6.10656 -2.09864,-9.36108z" fill="#000000" stroke="none" stroke-width="0.5" stroke-linecap="butt"/><path d="M221.02248,115.70306c4.38145,7.23617 11.84533,10.5226 19.89541,11.9462c1.8673,0.33022 3.79816,0.15617 5.66691,0.47815c2.14473,0.36954 3.61798,1.01672 5.53302,1.18654c-0.90025,0.81841 -1.93127,1.50565 -2.99185,2.1011c-1.90923,1.07189 -5.05303,1.72215 -7.20764,1.76264c-3.02018,0.05676 -6.06697,-1.41069 -8.86014,-2.32236c-5.26938,-1.71986 -9.13637,-4.09998 -12.04643,-8.95233c-2.30835,-3.77171 -4.89342,-7.4633 -3.94768,-12.27404c0.23816,-1.21146 1.06009,-2.26349 1.85181,-3.27827c0.50125,3.25453 0.31097,6.3868 2.1066,9.35236z" data-paper-data="{&quot;noHover&quot;:false,&quot;origItem&quot;:[&quot;Path&quot;,{&quot;applyMatrix&quot;:true,&quot;segments&quot;:[[[451.78511,262.62843],[4.31197,4.97793],[-0.26089,2.56092]],[[452.28118,270.18723],[-0.8858,-2.30496],[3.51753,9.15302]],[[472.02019,286.72642],[-7.92245,-3.93081],[10.09135,5.12055]],[[501.83311,289.04311],[-10.75343,2.69464],[5.70014,-1.42837]],[[519.28261,283.58786],[-5.05406,3.30988],[3.6056,-2.36129]],[[529.61078,272.9589],[-2.09256,3.84679],[1.16242,-2.1369]],[[532.44352,266.22851],[-0.65366,2.34389],[-3.4237,1.75021]],[[521.95572,270.07189],[4.02518,-1.6564],[-3.5072,1.44324]],[[511.85199,275.30306],[3.51352,-1.42778],[-15.14706,6.15527]],[[465.30009,276.24761],[15.11965,7.59167],[-6.1964,-3.11125]]],&quot;closed&quot;:true}]}" fill="#ffffff" stroke="none" stroke-width="0.5" stroke-linecap="butt"/><path d="M221.00113,113.07943l-3.36397,5.35351" fill="none" stroke="#000000" stroke-width="2" stroke-linecap="round"/><path d="M224.69924,116.2817l-4.25443,6.77063" fill="none" stroke="#000000" stroke-width="2" stroke-linecap="round"/><path d="M224.00355,126.82591l4.45231,-7.08554" fill="none" stroke="#000000" stroke-width="2" stroke-linecap="round"/><path d="M233.69235,122.59155l-5.34277,8.50264" fill="none" stroke="#000000" stroke-width="2" stroke-linecap="round"/><path d="M233.68924,132.03357l4.74914,-7.55791" fill="none" stroke="#000000" stroke-width="2" stroke-linecap="round"/><path d="M244.11104,126.28315l-4.74913,7.5579" fill="none" stroke="#000000" stroke-width="2" stroke-linecap="round"/><path d="M248.95071,128.00645l-3.56185,5.66843l-1.58304,2.51929" fill="none" stroke="#000000" stroke-width="2" stroke-linecap="round"/><path d="M243.97557,117.05318c-1.81203,2.8837 -5.68184,3.71278 -8.64349,1.85178c-2.96163,-1.86099 -3.89358,-5.70733 -2.08156,-8.59104c1.81203,-2.8837 5.68184,-3.71278 8.64349,-1.85178c2.96163,1.86099 3.89358,5.70733 2.08156,8.59104z" fill="#ff0000" stroke="#000000" stroke-width="2" stroke-linecap="butt"/><path d="M220.92844,106.78535l-3.56185,5.66843l-1.58304,2.51929" fill="none" stroke="#000000" stroke-width="2" stroke-linecap="round"/><g stroke-linecap="butt"><path d="M22.25,336.55006v-320h204v320z" fill="#47ff00" stroke="none" stroke-width="0"/><path d="M233.9893,185.97539c7.84308,2.13396 12.57931,9.82476 10.57867,17.17789c-2.00065,7.35313 -9.98056,11.58409 -17.82364,9.45014c-7.84308,-2.13396 -12.5793,-9.82473 -10.57866,-17.17786c2.00065,-7.35313 9.98055,-11.58412 17.82364,-9.45016z" data-paper-data="{&quot;index&quot;:null}" fill="#848484" stroke="#000000" stroke-width="2"/></g><path d="M5.01502,350.12012v-343.84384h364.86486v343.84384z" fill="none" stroke="#000000" stroke-width="0" stroke-linecap="butt"/></g></g></svg>