<svg version="1.1" xmlns="http://www.w3.org/2000/svg" xmlns:xlink="http://www.w3.org/1999/xlink" width="364.86486" height="343.84384" viewBox="0,0,364.86486,343.84384"><g transform="translate(-5.01503,-6.27628)"><g data-paper-data="{&quot;isPaintingLayer&quot;:true}" fill-rule="nonzero" stroke-linecap="butt" stroke-linejoin="miter" stroke-miterlimit="10" stroke-dasharray="" stroke-dashoffset="0" style="mix-blend-mode: normal"><path d="M244.26726,195.47661c-2.53418,5.71319 -8.24736,3.17901 -8.24736,3.17901l-5.05024,-2.24297c-17.47872,-6.57471 -34.99483,-10.64767 -53.78989,-8.90617c-5.17643,0.47963 -10.15597,1.95434 -15.30273,2.6532c0,0 -6.1944,0.83188 -7.02628,-5.3625c-0.83189,-6.19439 5.3625,-7.02627 5.3625,-7.02627c5.35538,-0.71008 10.49596,-2.20474 15.89211,-2.71816c20.76335,-1.97558 40.29005,2.53174 59.60038,9.79186l5.38247,2.38462c0,0 5.71319,2.53417 3.17901,8.24736z" data-paper-data="{&quot;index&quot;:null}" fill="#000000" stroke="none" stroke-width="0.5"/><path d="" fill="#6b0000" stroke="none" stroke-width="0.5"/><path d="M22.25001,337.05004v-320h204v320z" fill="#47ff00" stroke="none" stroke-width="0"/><path d="M5.01503,350.12012v-343.84384h364.86486v343.84384z" fill="none" stroke="#000000" stroke-width="0"/><path d="M241.48931,183.14202c7.84308,2.13396 12.57931,9.82476 10.57867,17.17789c-2.00065,7.35313 -9.98056,11.58409 -17.82364,9.45014c-7.84308,-2.13396 -12.5793,-9.82473 -10.57866,-17.17786c2.00065,-7.35313 9.98055,-11.58412 17.82364,-9.45016z" data-paper-data="{&quot;index&quot;:null}" fill="#848484" stroke="#000000" stroke-width="2"/></g></g></svg>