<svg version="1.1" xmlns="http://www.w3.org/2000/svg" xmlns:xlink="http://www.w3.org/1999/xlink" width="364.86486" height="343.84384" viewBox="0,0,364.86486,343.84384"><g transform="translate(-5.01501,-6.27628)"><g data-paper-data="{&quot;isPaintingLayer&quot;:true}" fill-rule="nonzero" stroke-linecap="butt" stroke-linejoin="miter" stroke-miterlimit="10" stroke-dasharray="" stroke-dashoffset="0" style="mix-blend-mode: normal"><path d="M227.74471,176.04619c1.06307,6.15894 -5.09586,7.222 -5.09586,7.222l-5.44584,0.93734c-18.18843,4.23242 -35.0194,10.56658 -49.68695,22.44724c-4.03966,3.2721 -7.36323,7.26265 -11.25652,10.70064c0,0 -4.69091,4.13013 -8.82103,-0.56078c-4.13012,-4.69091 0.56079,-8.82102 0.56079,-8.82102c4.06061,-3.56311 7.50706,-7.65964 11.71072,-11.0818c16.17491,-13.16784 34.91941,-20.25667 55.01185,-24.93556l5.80083,-1.00391c0,0 6.15893,-1.06308 7.222,5.09586z" data-paper-data="{&quot;index&quot;:null}" fill="#000000" stroke="none" stroke-width="0.5"/><path d="M230.4893,165.47533c7.84308,2.13396 12.57931,9.82476 10.57867,17.17789c-2.00065,7.35313 -9.98056,11.58409 -17.82364,9.45014c-7.84308,-2.13396 -12.5793,-9.82473 -10.57866,-17.17786c2.00065,-7.35313 9.98055,-11.58412 17.82364,-9.45016z" data-paper-data="{&quot;index&quot;:null}" fill="#848484" stroke="#000000" stroke-width="2"/><path d="" fill="#6b0000" stroke="none" stroke-width="0.5"/><path d="M22.25,337.05003v-320h204v320z" fill="#47ff00" stroke="none" stroke-width="0"/><path d="M5.01502,350.12012v-343.84384h364.86486v343.84384z" fill="none" stroke="#000000" stroke-width="0"/></g></g></svg>