<svg version="1.1" xmlns="http://www.w3.org/2000/svg" xmlns:xlink="http://www.w3.org/1999/xlink" width="364.86486" height="343.84384" viewBox="0,0,364.86486,343.84384"><g transform="translate(-5.01502,-6.27628)"><g data-paper-data="{&quot;isPaintingLayer&quot;:true}" fill-rule="nonzero" stroke-linejoin="miter" stroke-miterlimit="10" stroke-dasharray="" stroke-dashoffset="0" style="mix-blend-mode: normal"><path d="M77.88006,164.06888c-3.3267,-5.2911 1.9644,-8.61778 1.9644,-8.61778l4.98522,-3.1313c18.07071,-9.95228 36.75001,-17.21117 57.58218,-18.23128c5.41403,-0.26511 10.71574,0.47751 16.1176,0.41285c0,0 6.24967,-0.06433 6.314,6.18534c0.06433,6.24967 -6.18535,6.31399 -6.18535,6.31399c-5.19378,0.04586 -10.33325,-0.70008 -15.52499,-0.43301c-18.85064,0.96971 -35.60235,7.51062 -51.95856,16.5221l-4.67671,2.94349c0,0 -5.29109,3.3267 -8.61778,-1.9644z" fill="#000000" stroke="none" stroke-width="0.5" stroke-linecap="butt"/><path d="M169.26466,133.71774l3.24392,-8.929l16.86442,6.12688l-3.24392,8.929z" fill="#3c3c3c" stroke="#000000" stroke-width="2" stroke-linecap="butt"/><path d="M227.5029,110.92585c-6.52951,17.97268 -27.09744,26.99306 -45.93976,20.1476c-18.84231,-6.84546 -28.82382,-26.96452 -22.2943,-44.9372c6.52951,-17.97268 27.09744,-26.99305 45.93976,-20.14759c18.84231,6.84546 28.82382,26.96452 22.29431,44.93719z" fill="#848484" stroke="#000000" stroke-width="2" stroke-linecap="butt"/><path d="M195.39113,190.49547c-5.52133,15.19763 -8.92681,19.83753 -20.46465,24.77312c-7.18122,3.07194 -18.60933,-0.4124 -25.62898,-2.96265c-7.81642,-2.83972 -17.68372,-7.22528 -21.13312,-15.38439c-4.6255,-10.94098 -4.16705,-16.37544 0.96422,-30.4994c8.95785,-24.65673 31.053,-39.25597 49.35089,-32.60831c18.29789,6.64766 25.8695,32.02491 16.91165,56.68164z" fill="#848484" stroke="#000000" stroke-width="2" stroke-linecap="butt"/><path d="M156.33611,40.46898z" fill="#ffffff" stroke="none" stroke-width="0" stroke-linecap="butt"/><g fill="#ff0000" stroke="#000000" stroke-width="2" stroke-linecap="butt"><path d="M199.46991,148.85387c-1.66574,4.58499 -7.77835,6.57175 -13.65289,4.43752c-5.87454,-2.13423 -9.28644,-7.58127 -7.6207,-12.16626c1.66574,-4.58499 7.77835,-6.57175 13.65289,-4.43752c5.87454,2.13423 9.28644,7.58127 7.6207,12.16626z"/><path d="M173.82514,139.1455c-1.66574,4.58499 -7.77835,6.57175 -13.65289,4.43752c-5.87454,-2.13423 -9.28644,-7.58127 -7.6207,-12.16626c1.66574,-4.58499 7.77835,-6.57175 13.65289,-4.43752c5.87454,2.13423 9.28644,7.58127 7.6207,12.16626z"/><path d="M171.3177,145.7824c1.00235,2.55436 -1.25282,5.8289 -5.03707,7.31385c-3.78425,1.48496 -7.66456,0.61804 -8.66691,-1.93633c-1.00235,-2.55436 1.25283,-5.82889 5.03708,-7.31384c3.78425,-1.48496 7.66456,-0.61804 8.66691,1.93633z"/><path d="M185.20968,151.6502c1.9486,3.56772 1.57602,7.52619 -0.83219,8.84149c-2.40821,1.3153 -5.9401,-0.51065 -7.8887,-4.07837c-1.9486,-3.56772 -1.57601,-7.52619 0.83219,-8.84149c2.40821,-1.3153 5.94009,0.51065 7.8887,4.07836z" data-paper-data="{&quot;index&quot;:null}"/><path d="M182.00903,148.48171c-0.98904,2.72236 -5.2754,3.66328 -9.57382,2.10165c-4.29844,-1.56163 -6.98125,-5.03448 -5.99222,-7.75683c0.98903,-2.72235 5.27539,-3.66329 9.57383,-2.10166c4.29844,1.56163 6.98125,5.03448 5.99221,7.75684z"/></g><g stroke="none" stroke-width="0" stroke-linecap="butt"><path d="M185.71024,61.70001c0,0 -0.21191,-2.9061 -0.28894,-3.96251c-0.05133,-0.70398 0.32924,-1.48076 0.32924,-1.48076c0,0 0.62175,0.2043 1.98685,1.11554c1.48036,0.98818 3.29683,2.47969 4.43747,4.40412c3.58603,6.05013 20.05508,17.71184 31.65054,20.25996c3.29539,0.72417 6.64097,2.18378 8.69484,3.18123c1.24244,0.60338 0.57266,0.99685 0.57266,0.99685c0,0 0.16878,0.58265 -0.58592,0.90449c-0.9563,0.40781 -3.25212,1.38683 -3.25212,1.38683c0,0 -7.07825,1.15284 -11.3046,-1.42359c-2.15814,-1.31563 -5.34614,-1.69683 -7.95523,-3.28738c-4.45835,-2.71786 -8.49439,-5.17831 -12.5286,-7.63761c-3.40314,-2.0746 -6.32964,-5.42086 -7.99029,-6.43321c-2.96155,-1.80539 -3.76589,-8.02395 -3.76589,-8.02395z" fill="#000000"/><path d="M188.68762,66.63951c0,0 13.61636,-22.33605 16.43243,-26.9555c0.97437,-1.59835 1.88404,-2.23632 1.88404,-2.23632c0,0 1.48167,-0.3986 2.85652,0.43953c3.81225,2.324 21.76517,13.69553 28.8243,18.06545c1.75973,1.08935 1.46489,1.44073 1.46489,1.44073c0,0 0.69007,1.43072 -0.13396,2.78244c-2.65191,4.35014 -16.77961,27.525 -16.77961,27.525z" fill="#000000"/><path d="M191.83105,61.73494l2.15602,-3.5367c0,0 7.99055,8.24919 13.81123,11.76195c5.56585,3.35896 20.3826,8.87386 20.3826,8.87386l-2.24899,3.68922c0,0 -3.01136,1.51137 -5.57419,-0.05097c-1.91271,-1.16602 -4.92518,-1.95648 -7.48061,-3.5143c-3.64563,-2.22243 -7.46515,-4.55085 -10.82864,-6.60129c-2.8773,-1.75405 -4.84441,-3.99919 -6.24583,-4.85352c-2.41645,-1.47311 -3.97158,-5.76826 -3.97158,-5.76826z" fill="#ffffff"/></g><path d="M64.6248,159.19786c4.40636,-6.83021 13.16951,-9.01825 19.57303,-4.88716c6.40352,4.1311 8.02254,13.01697 3.61618,19.84717c-4.40637,6.8302 -13.1695,9.01827 -19.57302,4.88717c-6.40352,-4.1311 -8.02255,-13.01699 -3.61619,-19.84719z" fill="#848484" stroke="#000000" stroke-width="2" stroke-linecap="butt"/><path d="M174.7787,167.05589c-1.49992,4.12858 -5.91397,6.31355 -9.85904,4.8803c-3.94507,-1.43325 -5.92728,-5.942 -4.42736,-10.07058c1.49992,-4.12857 5.91397,-6.31355 9.85905,-4.8803c3.94507,1.43325 5.92727,5.942 4.42735,10.07058z" fill="#6b0000" stroke="#000000" stroke-width="2" stroke-linecap="butt"/><path d="M167.43718,187.26361c-1.49992,4.12858 -5.91397,6.31355 -9.85904,4.8803c-3.94507,-1.43325 -5.92728,-5.942 -4.42736,-10.07058c1.49992,-4.12857 5.91397,-6.31355 9.85905,-4.8803c3.94507,1.43325 5.92727,5.942 4.42735,10.07058z" fill="#6b0000" stroke="#000000" stroke-width="2" stroke-linecap="butt"/><path d="M175.18744,83.08682c1.36772,-3.76469 5.52836,-5.70783 9.29306,-4.3401c3.7647,1.36772 5.70782,5.52837 4.3401,9.29306c-1.36772,3.76469 -5.52836,5.70783 -9.29306,4.3401c-3.7647,-1.36772 -5.70782,-5.52837 -4.3401,-9.29306z" fill="#ffffff" stroke="#000000" stroke-width="2" stroke-linecap="butt"/><path d="M184.65753,86.4284c-0.754,2.07541 -2.49991,3.34564 -3.89961,2.83712c-1.39969,-0.50851 -1.92314,-2.6032 -1.16914,-4.67861c0.754,-2.07541 2.49992,-3.34563 3.89962,-2.83711c1.39969,0.50851 1.92313,2.60319 1.16913,4.6786z" fill="#ff0000" stroke="#000000" stroke-width="2" stroke-linecap="butt"/><path d="M205.07553,93.94523c1.36772,-3.76469 5.52836,-5.70783 9.29306,-4.3401c3.7647,1.36772 5.70782,5.52837 4.3401,9.29306c-1.36772,3.76469 -5.52836,5.70783 -9.29306,4.3401c-3.7647,-1.36772 -5.70782,-5.52837 -4.3401,-9.29306z" fill="#ffffff" stroke="#000000" stroke-width="2" stroke-linecap="butt"/><path d="M214.54563,97.28682c-0.754,2.07541 -2.49992,3.34564 -3.89961,2.83712c-1.39969,-0.50851 -1.92313,-2.6032 -1.16913,-4.67861c0.754,-2.07541 2.49993,-3.34562 3.89961,-2.83712c1.39969,0.50851 1.92313,2.60319 1.16913,4.6786z" fill="#ff0000" stroke="#000000" stroke-width="2" stroke-linecap="butt"/><path d="M172.87132,94.90801c0.23976,0.36691 0.33655,0.70385 0.34442,1.00457c1.23014,-0.05713 1.72361,1.21382 1.72361,1.21382c1.01902,2.63933 1.31179,5.54453 3.35396,7.68911c5.10059,5.35634 12.11819,6.5872 19.2423,6.30612c1.87281,-0.07389 3.70208,-0.6602 5.57498,-0.73165c2.56781,-0.09797 3.89239,0.54226 6.41753,-0.22662c1.27219,0.02617 2.95171,-0.85482 3.81658,0.07854c0.8435,0.9103 -0.03337,2.4997 -0.30555,3.71052c-0.45735,2.03458 -2.80006,4.35817 -4.29136,5.65532c-5.37955,4.67928 -12.04691,4.36153 -18.61084,3.6762c-6.40575,-0.6688 -11.38585,-2.59231 -15.90849,-7.31713c-0.90497,-0.96157 -2.03639,-1.68944 -2.9567,-2.63634c-2.49161,-2.56359 -4.467,-7.49079 -4.5158,-11.06536c-0.03222,-2.35964 1.12828,-4.5544 2.09714,-6.62182l1.44425,-1.27471c0,0 1.55671,-1.01727 2.57398,0.53943zM171.53259,98.62856c-0.55984,1.15895 -1.08015,2.40249 -1.0574,3.63693c0.09034,4.902 3.40049,7.94275 6.45251,11.14265c3.86815,4.12931 8.10135,5.60913 13.61496,6.17876c2.92263,0.30195 6.19149,1.10809 9.13173,0.41552c2.09759,-0.49408 5.02823,-1.78117 6.66841,-3.23169c0.91111,-0.80577 1.77297,-1.68938 2.48034,-2.67928c-1.90777,0.23796 -3.41048,-0.07562 -5.5849,0.01557c-1.89461,0.07945 -3.74642,0.66223 -5.64136,0.73334c-8.16922,0.30655 -16.22891,-1.35495 -22.0382,-7.50406c-2.38079,-2.52005 -2.84959,-5.63219 -4.02608,-8.70775z" fill="#000000" stroke="none" stroke-width="0.5" stroke-linecap="butt"/><path d="M175.59338,107.34966c5.80928,6.14911 13.79847,7.78712 21.9677,7.48057c1.89494,-0.07111 3.74564,-0.64854 5.64025,-0.728c2.17442,-0.09119 3.75104,0.23065 5.65881,-0.00731c-0.70736,0.9899 -1.5702,1.87916 -2.48131,2.68493c-1.64016,1.45051 -4.57605,2.7493 -6.67364,3.24339c-2.94025,0.69257 -6.22803,-0.09916 -9.15066,-0.40111c-5.5136,-0.56962 -9.79565,-2.08046 -13.6638,-6.20977c-3.05202,-3.1999 -6.35764,-6.26312 -6.44798,-11.16511c-0.02275,-1.23444 0.55877,-2.43618 1.11861,-3.59513c1.1765,3.07556 1.65123,6.17749 4.03202,8.69754z" data-paper-data="{&quot;noHover&quot;:false,&quot;origItem&quot;:[&quot;Path&quot;,{&quot;applyMatrix&quot;:true,&quot;segments&quot;:[[[451.78511,262.62843],[4.31197,4.97793],[-0.26089,2.56092]],[[452.28118,270.18723],[-0.8858,-2.30496],[3.51753,9.15302]],[[472.02019,286.72642],[-7.92245,-3.93081],[10.09135,5.12055]],[[501.83311,289.04311],[-10.75343,2.69464],[5.70014,-1.42837]],[[519.28261,283.58786],[-5.05406,3.30988],[3.6056,-2.36129]],[[529.61078,272.9589],[-2.09256,3.84679],[1.16242,-2.1369]],[[532.44352,266.22851],[-0.65366,2.34389],[-3.4237,1.75021]],[[521.95572,270.07189],[4.02518,-1.6564],[-3.5072,1.44324]],[[511.85199,275.30306],[3.51352,-1.42778],[-15.14706,6.15527]],[[465.30009,276.24761],[15.11965,7.59167],[-6.1964,-3.11125]]],&quot;closed&quot;:true}]}" fill="#ffffff" stroke="none" stroke-width="0.5" stroke-linecap="butt"/><path d="M175.01908,104.78956l-2.15898,5.94266" fill="none" stroke="#000000" stroke-width="2" stroke-linecap="round"/><path d="M176.57899,114.6554l2.73048,-7.51572" fill="none" stroke="#000000" stroke-width="2" stroke-linecap="round"/><path d="M183.71115,109.72809l-2.85748,7.86529" fill="none" stroke="#000000" stroke-width="2" stroke-linecap="round"/><path d="M189.43124,111.41051l-3.42897,9.43834" fill="none" stroke="#000000" stroke-width="2" stroke-linecap="round"/><path d="M194.46791,112.25107l-3.04798,8.38965" fill="none" stroke="#000000" stroke-width="2" stroke-linecap="round"/><path d="M200.39421,112.82128l-3.04797,8.38964" fill="none" stroke="#000000" stroke-width="2" stroke-linecap="round"/><path d="M205.4885,113.48492l-2.28598,6.29223l-1.01599,2.79654" fill="none" stroke="#000000" stroke-width="2" stroke-linecap="round"/><path d="M198.31478,103.82758c-1.16295,3.20105 -4.7708,4.82778 -8.05837,3.6334c-3.28756,-1.19438 -5.0099,-4.75758 -3.84695,-7.95863c1.16295,-3.20105 4.7708,-4.82778 8.05837,-3.6334c3.28756,1.19438 5.0099,4.75758 3.84695,7.95863z" fill="#ff0000" stroke="#000000" stroke-width="2" stroke-linecap="butt"/><path d="M173.62032,98.65244l-2.28598,6.29223l-1.01599,2.79654" fill="none" stroke="#000000" stroke-width="2" stroke-linecap="round"/><g stroke-linecap="butt"><path d="M236.34403,202.16748c-4.93347,3.83712 -8.77058,-1.09635 -8.77058,-1.09635l-3.39051,-4.36351c-12.296,-14.05492 -25.80733,-25.92282 -43.19382,-33.27109c-4.78849,-2.02382 -9.87376,-3.07767 -14.73971,-4.89427c0,0 -5.85207,-2.19451 -3.65756,-8.04657c2.19451,-5.85206 8.04657,-3.65755 8.04657,-3.65755c5.0551,1.90532 10.29172,3.01769 15.28981,5.11557c19.2317,8.07226 34.30961,21.27319 47.8958,36.79781l3.61635,4.64537c0,0 3.83712,4.93346 -1.09635,8.77058z" data-paper-data="{&quot;index&quot;:null}" fill="#000000" stroke="none" stroke-width="0.5"/><g><path d="M22.25,337.05006v-320h204v320z" fill="#47ff00" stroke="none" stroke-width="0"/><path d="M233.9893,185.97538c7.84308,2.13396 12.57931,9.82476 10.57867,17.17789c-2.00065,7.35313 -9.98056,11.58409 -17.82364,9.45014c-7.84308,-2.13396 -12.5793,-9.82473 -10.57866,-17.17786c2.00065,-7.35313 9.98055,-11.58412 17.82364,-9.45016z" data-paper-data="{&quot;index&quot;:null}" fill="#848484" stroke="#000000" stroke-width="2"/></g></g><path d="M5.01502,350.12012v-343.84384h364.86486v343.84384z" fill="none" stroke="#000000" stroke-width="0" stroke-linecap="butt"/></g></g></svg>