<svg version="1.1" xmlns="http://www.w3.org/2000/svg" xmlns:xlink="http://www.w3.org/1999/xlink" width="364.86486" height="343.84384" viewBox="0,0,364.86486,343.84384"><g transform="translate(-5.01501,-6.27628)"><g data-paper-data="{&quot;isPaintingLayer&quot;:true}" fill-rule="nonzero" stroke-linecap="butt" stroke-linejoin="miter" stroke-miterlimit="10" stroke-dasharray="" stroke-dashoffset="0" style="mix-blend-mode: normal"><path d="M245.17272,190.18616c-1.83991,5.97305 -7.81295,4.13314 -7.81295,4.13314l-5.28028,-1.62924c-18.13422,-4.45898 -36.00936,-6.42939 -54.46602,-2.4748c-5.08323,1.08915 -9.85314,3.14306 -14.88095,4.44638c0,0 -6.05233,1.55945 -7.61178,-4.49287c-1.55945,-6.05232 4.49287,-7.61177 4.49287,-7.61177c5.23364,-1.33916 10.16109,-3.43195 15.45849,-4.58067c20.38339,-4.42006 40.30641,-2.25641 60.34051,2.6663l5.62695,1.73056c0,0 5.97305,1.8399 4.13314,7.81295z" data-paper-data="{&quot;index&quot;:null}" fill="#000000" stroke="none" stroke-width="0.5"/><path d="M246.4893,175.47535c7.84308,2.13396 12.57931,9.82476 10.57867,17.17789c-2.00065,7.35313 -9.98056,11.58409 -17.82364,9.45014c-7.84308,-2.13396 -12.5793,-9.82473 -10.57866,-17.17786c2.00065,-7.35313 9.98055,-11.58412 17.82364,-9.45016z" data-paper-data="{&quot;index&quot;:null}" fill="#848484" stroke="#000000" stroke-width="2"/><path d="" fill="#6b0000" stroke="none" stroke-width="0.5"/><path d="M22.25,337.05004v-320h204v320z" fill="#47ff00" stroke="none" stroke-width="0"/><path d="M5.01502,350.12012v-343.84384h364.86486v343.84384z" fill="none" stroke="#000000" stroke-width="0"/></g></g></svg>