<svg version="1.1" xmlns="http://www.w3.org/2000/svg" xmlns:xlink="http://www.w3.org/1999/xlink" width="205.16732" height="269.30603" viewBox="0,0,205.16732,269.30603"><g transform="translate(-129.84166,-54.18176)"><g data-paper-data="{&quot;isPaintingLayer&quot;:true}" fill-rule="nonzero" stroke="#000000" stroke-width="2" stroke-linejoin="miter" stroke-miterlimit="10" stroke-dasharray="" stroke-dashoffset="0" style="mix-blend-mode: normal"><path d="M162.49626,221.92338l-7.73727,-13.43073l27.07809,-15.59933l7.73728,13.43073z" fill="#3c3c3c" stroke-linecap="butt"/><path d="M186.04167,208.15835v-15.5h32.75v15.5z" fill="#3c3c3c" stroke-linecap="butt"/><path d="M209.90002,143.47668l8,5.2l7.4,3.6l5.6,1.8l9.4,-0.2l11.4,-2.4l11,-6.8l6.05,-7.27667l-8.5,28.5h-45.5l-6,-24.5" fill="#4c0000" stroke-linecap="round"/><path d="M246.45436,300.25381l-6.82564,-21.61454l22.25027,-7.0264l6.82564,21.61454z" data-paper-data="{&quot;index&quot;:null}" fill="#3c3c3c" stroke-linecap="butt"/><path d="M204.29538,294.2274l6.82564,-21.61454l22.25027,7.0264l-6.82564,21.61454z" fill="#3c3c3c" stroke-linecap="butt"/><path d="M263.58281,276.17281c-13.21626,-0.07018 -23.82437,-20.04391 -23.69391,-44.61257c0.13046,-24.56866 10.9501,-44.42861 24.16635,-44.35843c13.21626,0.07018 23.82437,20.04391 23.69391,44.61257c-0.13046,24.56866 -10.9501,44.42861 -24.16635,44.35843z" fill="#ff0000" stroke-linecap="butt"/><path d="M288.2263,209.07405l7.73728,-13.43073l27.0781,15.59933l-7.73728,13.43073z" data-paper-data="{&quot;index&quot;:null}" fill="#3c3c3c" stroke-linecap="butt"/><path d="M259.00898,210.90835v-15.5h32.75v15.5z" data-paper-data="{&quot;index&quot;:null}" fill="#3c3c3c" stroke-linecap="butt"/><path d="M294.25898,193.15835c5.38477,0 9.75,4.42119 9.75,9.875c0,5.45381 -4.36523,9.875 -9.75,9.875c-5.38477,0 -9.75,-4.42119 -9.75,-9.875c0,-5.45381 4.36523,-9.875 9.75,-9.875z" data-paper-data="{&quot;index&quot;:null}" fill="#848484" stroke-linecap="butt"/><path d="M280.0617,231.03395c0,31.70148 -19.0044,57.40062 -42.44752,57.40062c-23.44312,0 -42.44752,-25.69913 -42.44752,-57.40062c0,-31.70148 19.0044,-57.40062 42.44752,-57.40062c23.44312,0 42.44752,25.69913 42.44752,57.40062z" fill="#848484" stroke-linecap="butt"/><path d="M226.25174,177.25v-9.5h21.5v9.5z" fill="#3c3c3c" stroke-linecap="butt"/><path d="M238.375,182.78335c0,5.38477 -8.11484,9.75 -18.125,9.75c-10.01016,0 -18.125,-4.36523 -18.125,-9.75c0,-5.38477 8.11484,-9.75 18.125,-9.75c10.01016,0 18.125,4.36523 18.125,9.75z" fill="#ff0000" stroke-linecap="butt"/><path d="M271.125,183.53334c0,5.38478 -8.11484,9.75 -18.125,9.75c-10.01016,0 -18.125,-4.36522 -18.125,-9.75c0,-5.38478 8.11484,-9.75 18.125,-9.75c10.01016,0 18.125,4.36522 18.125,9.75z" fill="#ff0000" stroke-linecap="butt"/><path d="M283.17303,131.7072c-8.24022,4.49992 -17.0124,4.31664 -19.59324,-0.40936c-2.58084,-4.726 2.007,-12.20508 10.24721,-16.70501c8.24022,-4.49992 17.0124,-4.31663 19.59323,0.40937c2.58084,4.726 -2.00699,12.20509 -10.2472,16.705z" fill="#ff0000" stroke-linecap="butt"/><path d="M280.33133,116.964c-7.52454,5.61532 -16.23514,6.66899 -19.45569,2.35345c-3.22055,-4.31554 0.26852,-12.36608 7.79305,-17.9814c7.52454,-5.61532 16.23514,-6.66898 19.45569,-2.35344c3.22055,4.31554 -0.26851,12.36609 -7.79305,17.98139z" fill="#ff0000" stroke-linecap="butt"/><path d="M273.14716,106.50602c-5.15759,7.84535 -12.98625,11.80731 -17.48579,8.84928c-4.49954,-2.95803 -3.96608,-11.7159 1.19151,-19.56126c5.15759,-7.84535 12.98625,-11.80731 17.48579,-8.84928c4.49954,2.95803 3.96608,11.7159 -1.19151,19.56126z" fill="#ff0000" stroke-linecap="butt"/><path d="M244.67165,85.37017c1.55336,17.60471 -6.21854,32.67302 -17.35903,33.65601c-11.14049,0.98298 -21.43088,-12.49159 -22.98423,-30.0963c-1.55336,-17.60471 6.21854,-32.67302 17.35903,-33.65601c11.14049,-0.98298 21.43088,12.49159 22.98423,30.0963z" fill="#848484" stroke-linecap="butt"/><path d="M232.11868,77.91227c1.18308,8.08441 -2.50005,15.31746 -8.2265,16.15548c-5.72646,0.83802 -11.32774,-5.03634 -12.51083,-13.12075c-1.18308,-8.08441 2.50005,-15.31746 8.2265,-16.15548c5.72646,-0.83802 11.32774,5.03634 12.51083,13.12075z" fill="#000000" stroke-linecap="butt"/><path d="M218.61111,155.86666v-8.11112h36.77778v8.11112z" fill="#8d8d8d" stroke-linecap="butt"/><path d="M257.81262,55.27388c11.14049,0.98299 18.91239,16.05129 17.35903,33.656c-1.55336,17.60471 -11.84375,31.07929 -22.98423,30.09631c-11.14049,-0.98299 -18.91238,-16.05129 -17.35903,-33.656c1.55336,-17.60471 11.84374,-31.07929 22.98423,-30.0963z" data-paper-data="{&quot;index&quot;:null}" fill="#848484" stroke-linecap="butt"/><path d="M256.89216,65.79152c5.72645,0.83802 9.40959,8.07107 8.2265,16.15548c-1.18309,8.08441 -6.78438,13.95877 -12.51083,13.12075c-5.72646,-0.83802 -9.40959,-8.07108 -8.2265,-16.15548c1.18309,-8.08441 6.78437,-13.95877 12.51083,-13.12075z" data-paper-data="{&quot;index&quot;:null}" fill="#000000" stroke-linecap="butt"/><path d="M273.77628,119.21475c0,19.48752 -16.469,35.28529 -36.78453,35.28529c-20.31554,0 -36.78453,-15.79776 -36.78453,-35.28529c0,-19.48752 16.469,-35.28529 36.78453,-35.28529c20.31554,0 36.78453,15.79776 36.78453,35.28529z" fill="#848484" stroke-linecap="butt"/><path d="M231.75002,123.22146c0,4.73387 -1.79086,8.57143 -4,8.57143c-2.20914,0 -4,-3.83756 -4,-8.57143c0,-4.73387 1.79086,-8.57143 4,-8.57143c2.20914,0 4,3.83756 4,8.57143z" fill="#000000" stroke-linecap="butt"/><path d="M247.75002,122.72147c0,4.73387 -1.79086,8.57143 -4,8.57143c-2.20914,0 -4,-3.83756 -4,-8.57143c0,-4.73387 1.79086,-8.57143 4,-8.57143c2.20914,0 4,3.83756 4,8.57143z" fill="#000000" stroke-linecap="butt"/><path d="M263.25001,77.90003c0,4.83249 -3.46979,8.75 -7.75,8.75c-4.28021,0 -7.75,-3.91751 -7.75,-8.75c0,-4.83249 3.46979,-8.75 7.75,-8.75c4.28021,0 7.75,3.91751 7.75,8.75z" fill="#ff0000" stroke-linecap="butt"/><path d="M214.19404,152.61963c2.03704,7.45882 2.3927,13.85926 0.79438,14.29577c-1.59832,0.43651 -4.54537,-5.25621 -6.58241,-12.71503c-2.03704,-7.45882 -2.39269,-13.85926 -0.79437,-14.29577c1.59832,-0.43651 4.54537,5.25621 6.5824,12.71503z" fill="#848484" stroke-linecap="butt"/><path d="M215.75002,133.40003c0,4.28021 -2.46243,7.75 -5.5,7.75c-3.03757,0 -5.5,-3.46979 -5.5,-7.75c0,-4.28021 2.46243,-7.75 5.5,-7.75c3.03757,0 5.5,3.46979 5.5,7.75z" fill="#ff0000" stroke-linecap="butt"/><path d="M266.78839,139.90461c1.59832,0.43651 1.24266,6.83695 -0.79438,14.29577c-2.03704,7.45882 -4.98408,13.15154 -6.5824,12.71503c-1.59832,-0.43651 -1.24266,-6.83695 0.79438,-14.29577c2.03704,-7.45882 4.98408,-13.15154 6.5824,-12.71503z" data-paper-data="{&quot;index&quot;:null}" fill="#848484" stroke-linecap="butt"/><path d="M218.61111,167.19999v-8.11112h36.77778v8.11112z" fill="#8d8d8d" stroke-linecap="butt"/><path d="M267.75001,134.40003c0,4.2802 -2.46244,7.75 -5.5,7.75c-3.03756,0 -5.5,-3.4698 -5.5,-7.75c0,-4.2802 2.46244,-7.75 5.5,-7.75c3.03756,0 5.5,3.4698 5.5,7.75z" fill="#ff0000" stroke-linecap="butt"/><path d="M262.7,166.11001c0,1.933 -11.50628,3.5 -25.7,3.5c-14.19372,0 -25.7,-1.567 -25.7,-3.5c0,-1.933 11.50628,-3.5 25.7,-3.5c14.19372,0 25.7,1.567 25.7,3.5z" fill="#848484" stroke-linecap="butt"/><path d="M242.625,183.78334c0,3.72792 -2.68629,6.75 -6,6.75c-3.31371,0 -6,-3.02208 -6,-6.75c0,-3.72792 2.68629,-6.75 6,-6.75c3.31371,0 6,3.02208 6,6.75z" fill="#ff0000" stroke-linecap="butt"/><path d="M267.0617,235.26123c0,22.73941 -13.63182,41.17334 -30.44752,41.17334c-16.8157,0 -30.44752,-18.43393 -30.44752,-41.17334c0,-22.73941 13.63182,-41.17335 30.44752,-41.17335c16.8157,0 30.44752,18.43394 30.44752,41.17335z" fill="#3c3c3c" stroke-linecap="butt"/><path d="M223.1577,319.36115l0.01819,-1.63317c0.07534,-0.23407 0.15155,-0.46633 0.2281,-0.697c0.69928,-0.01041 1.3992,-0.01596 2.09985,-0.01596c0,0 0.40174,0 0.77598,0.21461c-0.10602,0.31556 -0.21453,0.632 -0.32493,0.94933l0.01817,1.18219c0,0 0,1.40769 -1.40768,1.40769c-0.84848,0 -1.18553,-0.51142 -1.31943,-0.91775c-10.02336,0.17941 -19.89106,1.46226 -29.94683,1.37643c-3.60983,0.90246 -11.31941,2.53437 -14.37088,-0.47143c-1.0822,-1.06601 -1.28914,-4.6121 -1.28564,-6.0872c0.01427,-6.01078 2.61851,-12.56711 6.91343,-16.87606c5.26378,-6.95531 16.43929,-10.28627 24.93276,-7.93261c4.66254,1.29206 8.60484,4.64056 13.11568,6.32855c0.79219,1.10384 1.84753,2.00281 2.63366,3.11097c4.22661,5.95806 3.10701,11.78222 1.0417,17.9299c0.3263,0.18712 0.63171,0.53739 0.63171,1.19307c0,1.40769 -1.40769,1.40768 -1.40769,1.40768c-0.7536,0 -1.50618,0.00725 -2.25789,0.0207c-0.08825,-0.26779 -0.08825,-0.48993 -0.08825,-0.48993z" data-paper-data="{&quot;index&quot;:null}" fill="#3d0000" stroke-linecap="butt"/><path d="M246.18181,319.51775c-0.75171,-0.01346 -1.50429,-0.0207 -2.2579,-0.0207c0,0 -1.40768,0 -1.40768,-1.40768c0,-0.65568 0.3054,-1.00594 0.6317,-1.19307c-2.06531,-6.14768 -3.18491,-11.97185 1.0417,-17.92991c0.78613,-1.10817 1.84146,-2.00714 2.63366,-3.11097c4.51084,-1.688 8.45314,-5.0365 13.11568,-6.32855c8.49347,-2.35366 19.66898,0.97731 24.93276,7.93261c4.29492,4.30895 6.89915,10.86529 6.91343,16.87607c0.00351,1.4751 -0.20343,5.02119 -1.28563,6.0872c-3.05147,3.00581 -10.76105,1.3739 -14.37088,0.47143c-10.05577,0.08582 -19.92347,-1.19702 -29.94683,-1.37644c-0.1339,0.40633 -0.47096,0.91775 -1.31944,0.91775c-1.40768,0 -1.40768,-1.40769 -1.40768,-1.40769l0.01818,-1.18219c-0.1104,-0.31734 -0.21892,-0.63376 -0.32493,-0.94933c0.37424,-0.21461 0.77598,-0.21462 0.77598,-0.21462c0.70066,0 1.40058,0.00556 2.09986,0.01597c0.07656,0.23068 0.15276,0.46294 0.2281,0.697l0.01818,1.63316c0,0 0,0.22214 -0.08825,0.48993z" data-paper-data="{&quot;index&quot;:null}" fill="#3d0000" stroke-linecap="butt"/><path d="M193.29167,200.28335c0,5.45381 -4.36523,9.875 -9.75,9.875c-5.38477,0 -9.75,-4.42119 -9.75,-9.875c0,-5.45381 4.36523,-9.875 9.75,-9.875c5.38477,0 9.75,4.42119 9.75,9.875z" fill="#848484" stroke-linecap="butt"/><path d="M164.69167,217.28335c0,5.45381 -4.36523,9.875 -9.75,9.875c-5.38477,0 -9.75,-4.42119 -9.75,-9.875c0,-5.45381 4.36523,-9.875 9.75,-9.875c5.38477,0 9.75,4.42119 9.75,9.875z" fill="#848484" stroke-linecap="butt"/><path d="M161.34167,225.20386c0,8.53032 -6.82766,15.44551 -15.25,15.44551c-8.42234,0 -15.25,-6.91519 -15.25,-15.44551c0,-8.53032 6.82766,-15.44551 15.25,-15.44551c8.42234,0 15.25,6.9152 15.25,15.44552z" fill="#848484" stroke-linecap="butt"/><path d="M144.73072,238.1377c-2.28995,2.20018 -6.78295,1.23956 -10.03538,-2.14559c-3.25243,-3.38515 -4.03268,-7.91295 -1.74273,-10.11313c2.28995,-2.20018 6.78295,-1.23956 10.03538,2.14559c3.25243,3.38515 4.03268,7.91295 1.74273,10.11313z" fill="#4c0000" stroke-linecap="butt"/><path d="M321.95898,208.55834c6.65503,0 12.05,5.46414 12.05,12.20449c0,6.74035 -5.39497,12.20449 -12.05,12.20449c-6.65503,0 -12.05,-5.46414 -12.05,-12.20449c0,-6.74035 5.39497,-12.20449 12.05,-12.20449z" data-paper-data="{&quot;index&quot;:null}" fill="#848484" stroke-linecap="butt"/><path d="M319.12134,225.90996c2.75616,2.03187 3.85243,5.22273 2.44859,7.12699c-1.40384,1.90426 -4.77618,1.8008 -7.53234,-0.23107c-2.75616,-2.03187 -3.85243,-5.22273 -2.44859,-7.12699c1.40384,-1.90426 4.77618,-1.8008 7.53234,0.23107z" fill="#848484" stroke-linecap="butt"/></g></g></svg>