<svg version="1.1" xmlns="http://www.w3.org/2000/svg" xmlns:xlink="http://www.w3.org/1999/xlink" width="129.68563" height="225.40575" viewBox="0,0,129.68563,225.40575"><defs><linearGradient x1="283.64462" y1="157.71276" x2="283.64462" y2="183.12255" gradientUnits="userSpaceOnUse" id="color-1"><stop offset="0" stop-color="#29a700"/><stop offset="1" stop-color="#00ff01"/></linearGradient><linearGradient x1="277.01466" y1="130.8724" x2="277.01466" y2="152.03675" gradientUnits="userSpaceOnUse" id="color-2"><stop offset="0" stop-color="#ff6bea"/><stop offset="1" stop-color="#fdd4ff"/></linearGradient><linearGradient x1="277.03084" y1="161.17493" x2="283.62045" y2="185.71538" gradientUnits="userSpaceOnUse" id="color-3"><stop offset="0" stop-color="#29a700"/><stop offset="1" stop-color="#00ff01"/></linearGradient><linearGradient x1="264.13911" y1="161.5486" x2="270.72873" y2="186.08905" gradientUnits="userSpaceOnUse" id="color-4"><stop offset="0" stop-color="#29a700"/><stop offset="1" stop-color="#00ff01"/></linearGradient><linearGradient x1="266.01379" y1="159.45809" x2="258.27982" y2="183.66228" gradientUnits="userSpaceOnUse" id="color-5"><stop offset="0" stop-color="#29a700"/><stop offset="1" stop-color="#00ff01"/></linearGradient><linearGradient x1="292.86217" y1="151.18746" x2="271.7179" y2="152.10921" gradientUnits="userSpaceOnUse" id="color-6"><stop offset="0" stop-color="#ff6bea"/><stop offset="1" stop-color="#fdd4ff"/></linearGradient><linearGradient x1="280.00062" y1="166.52952" x2="269.53785" y2="148.13222" gradientUnits="userSpaceOnUse" id="color-7"><stop offset="0" stop-color="#ff6bea"/><stop offset="1" stop-color="#fdd4ff"/></linearGradient><linearGradient x1="260.21012" y1="161.43157" x2="271.22602" y2="143.36005" gradientUnits="userSpaceOnUse" id="color-8"><stop offset="0" stop-color="#ff6bea"/><stop offset="1" stop-color="#fdd4ff"/></linearGradient><linearGradient x1="256.76214" y1="140.98942" x2="277.44209" y2="145.49155" gradientUnits="userSpaceOnUse" id="color-9"><stop offset="0" stop-color="#ff6bea"/><stop offset="1" stop-color="#fdd4ff"/></linearGradient><linearGradient x1="273.27519" y1="142.01849" x2="273.27519" y2="156.96542" gradientUnits="userSpaceOnUse" id="color-10"><stop offset="0" stop-color="#ffe000"/><stop offset="1" stop-color="#ffa600"/></linearGradient></defs><g transform="translate(-164.38368,-94.17657)"><g data-paper-data="{&quot;isPaintingLayer&quot;:true}" fill-rule="nonzero" stroke-linejoin="miter" stroke-miterlimit="10" stroke-dasharray="" stroke-dashoffset="0" style="mix-blend-mode: normal"><path d="M194.61979,282.79171c-5.19122,-1.93666 -17.03964,-16.04249 -23.47946,-31.68487c-6.50343,-15.7969 -7.54382,-33.13438 -1.52054,-35.64847c1.75178,-0.73119 9.23036,11.42642 18.88723,24.15437c11.72701,15.45642 25.24225,32.86152 17.4461,43.17897c-18.1008,23.95465 -7.18934,1.54598 -11.33333,0z" fill="#e4e4e4" stroke="#000000" stroke-width="2.5" stroke-linecap="butt"/><path d="M180.9683,296.15204c-5.11494,-15.14808 19.01567,-85.07014 19.01567,-85.07014l67.80591,-1.25103c0,0 19.36323,54.86105 14.51197,90.32447c-1.6612,12.14357 -34.06804,10.50866 -49.54085,10.50866c-13.76888,0 -46.67776,0.63612 -51.7927,-14.51196z" fill="#e4e4e4" stroke="#000000" stroke-width="2.5" stroke-linecap="butt"/><path d="M203.14756,143.08683c0,0 -5.83579,-10.36607 -4.46152,-21.27797c0.01952,-0.1551 7.31936,-24.47223 7.31936,-24.47223c0,0 14.65939,-2.01143 22.92269,-2.16021c9.93622,-0.1789 32.82608,1.91103 32.82608,1.91103c0,0 4.34767,14.75474 4.99748,24.95173c0.66675,10.46283 -1.48567,21.29765 -1.48567,21.29765z" fill="#fff1c2" stroke="#000000" stroke-width="2" stroke-linecap="butt"/><path d="M199.85506,135.28498c0,0 -1.6685,-5.15309 -2.01918,-8.65889c-0.29984,-2.99762 1.3614,-8.34153 1.3614,-8.34153c0,0 19.18493,-5.07296 29.85164,-5.11241c11.76147,-0.04349 37.31511,2.36262 37.31511,2.36262c0,0 1.37066,3.50381 1.4861,6.11175c0.03105,0.70158 1.25534,11.54712 -3.24427,12.13763c-4.49961,0.59051 -17.38841,-7.99586 -27.21188,-8.1407c-12.24648,-0.18056 -37.5389,9.64152 -37.5389,9.64152z" fill="#00fffd" stroke="#000000" stroke-width="2" stroke-linecap="butt"/><path d="M191.88613,183.58703v-45.5c0,0 30.49007,-3.5 45.25,-3.5c13.55379,0 39,8.5 39,8.5l1,40.5z" fill="#00fffd" stroke="none" stroke-width="0" stroke-linecap="butt"/><path d="M188.13613,162.83703l-8.5,-16c0,0 30.28454,-23.89864 57.25307,-22.0277c26.7447,-0.99584 52.99941,19.02543 52.99941,19.02543c0,0 -2.91884,2.94435 -3.12289,3.48652c-0.97049,2.57872 -9.51331,6.25295 -19.39979,-0.95655c-7.6509,-5.57925 -19.75628,-7.42951 -29.7302,-7.77708c-2.78507,-0.09706 -16.86226,0.0269 -25.7009,4.50329c-13.94759,7.06385 -23.79868,19.74609 -23.79868,19.74609z" fill="#fff1c2" stroke="#000000" stroke-width="2" stroke-linecap="butt"/><path d="M198.58231,218.7774l2.4503,-12.39801l65.76038,0.2502l4.59862,14.83103c0,0 -28.18787,9.97364 -39.35964,9.97364c-11.56852,0 -33.44966,-12.65686 -33.44966,-12.65686z" fill="#ff4a00" stroke="#000000" stroke-width="2" stroke-linecap="butt"/><path d="M281.6413,182.32101c0,22.85034 -21.32243,41.37419 -47.62497,41.37419c-26.30255,0 -47.62497,-18.52385 -47.62497,-41.37419c0,-14.21134 2.09593,-22.58202 14.65955,-30.03105c0.16071,-0.09529 6.06362,-23.90013 6.06362,-23.90013c0,0 12.29181,14.69358 14.16361,14.05075c1.21935,-0.41876 21.89608,-3.07581 29.09619,0.72428c2.9113,1.53653 15.61665,-13.88641 15.61665,-13.88641c0,0 1.79254,18.05365 3.66925,23.40242c0.09645,0.27489 4.88789,3.12364 7.38525,8.12616c3.33335,6.6771 4.59581,16.41579 4.59581,21.51398z" fill="#e4e4e4" stroke="#000000" stroke-width="2.5" stroke-linecap="butt"/><path d="M226.07885,166.54523c0,2.84944 -2.30993,5.15938 -5.15937,5.15938c-2.84944,0 -5.15937,-2.30994 -5.15937,-5.15938c0,-2.84944 2.30993,-5.15937 5.15937,-5.15937c2.84944,0 5.15937,2.30993 5.15937,5.15937z" fill="#000000" stroke="none" stroke-width="0" stroke-linecap="butt"/><path d="M253.86007,166.94211c0,2.84944 -2.30993,5.15937 -5.15937,5.15937c-2.84944,0 -5.15937,-2.30993 -5.15937,-5.15937c0,-2.84944 2.30993,-5.15937 5.15937,-5.15937c2.84944,0 5.15937,2.30993 5.15937,5.15937z" fill="#000000" stroke="none" stroke-width="0" stroke-linecap="butt"/><path d="M238.82149,176.19168c0,0 -2.08147,4.06224 -4.45096,4.13347c-2.3695,0.07122 -3.69097,-3.88874 -3.69097,-3.88874" fill="none" stroke="#000000" stroke-width="2" stroke-linecap="round"/><path d="M247.71399,182.34065c0,0 -2.28305,5.47154 -6.15935,5.77758c-3.87631,0.30605 -7.48604,-6.57493 -7.48604,-6.57493c0,0 -3.74716,7.01273 -6.98619,7.31945c-3.23903,0.30672 -5.65879,-6.12203 -5.65879,-6.12203" fill="none" stroke="#000000" stroke-width="2" stroke-linecap="round"/><path d="M242.34592,188.05576c0,0 -2.54099,9.391 -7.75141,10.00209c-5.21043,0.61107 -7.82966,-8.17474 -7.82966,-8.17474" fill="none" stroke="#000000" stroke-width="2" stroke-linecap="round"/><path d="M246.20449,256.84912l-5.63923,-0.60048c0,0 -0.15059,-1.87617 -0.15059,-2.64544c0,-6.98891 -6.51807,-16.61056 -6.51807,-16.61056c0,0 2.82406,-3.11202 3.60047,-2.64038c2.4506,1.48863 9.22541,10.63073 9.22541,15.46626c0,3.72994 -0.518,7.03061 -0.518,7.03061z" data-paper-data="{&quot;index&quot;:null}" fill="#ff4a00" stroke="#000000" stroke-width="1.5" stroke-linecap="butt"/><path d="M215.60396,248.13644c0,-4.83553 6.77481,-13.97762 9.22541,-15.46625c0.77641,-0.47164 3.60046,2.64038 3.60046,2.64038c0,0 -6.51807,9.62165 -6.51807,16.61056c0,0.76927 -0.15059,2.64545 -0.15059,2.64545l-5.63923,0.60047c0,0 -0.51799,-3.30067 -0.51799,-7.03061z" fill="#ff4a00" stroke="#000000" stroke-width="1.5" stroke-linecap="butt"/><path d="M206.35078,241.47505c0,0 -3.11622,-0.78125 -5.55014,-2.28504c-2.92893,-1.80963 -5.26865,-4.41629 -5.28215,-4.66617c-0.13082,-2.42384 -0.97551,-2.85296 -0.81997,-6.01539c0.12192,-2.47901 1.41609,-6.17059 1.41609,-6.17059c0,0 3.0418,-3.21639 7.84661,-5.04836c5.44015,-2.07423 12.44438,-3.1011 15.6826,-0.4223c3.40463,2.81645 6.84549,8.02971 6.84549,8.02971l0.05564,8.67848c0,0 -6.61597,5.31633 -10.13076,6.90616c-4.78875,2.16607 -8.18871,1.63932 -9.09198,1.25536c-0.35986,-0.15297 -1.6197,-2.99056 1.86399,-5.37207c1.43955,-0.98411 4.36912,-1.34607 6.46022,-2.11947c3.32443,-1.22955 5.71934,-2.64927 5.64522,-2.8289c-0.21366,-0.5178 1.31674,-1.63044 1.34418,-2.33737c0.03359,-0.86531 0.14914,-1.67831 0.10518,-2.45896c-0.02896,-0.51422 -0.12713,-0.96614 -0.36354,-1.29785c-0.41886,-0.5877 -2.46065,-1.63773 -4.94598,-2.10814c-1.13995,-0.21577 -2.35831,-0.24988 -3.60769,-0.26771c-0.87915,-0.01255 -1.77366,-0.01702 -2.66705,-0.07104c-0.59984,-0.03627 -3.12165,0.42275 -5.24915,0.47043c-2.75542,0.06173 -4.66999,0.14407 -5.35425,1.1395c-0.88541,1.28807 -1.91311,2.98199 -1.43177,4.83733c0.19789,0.76281 -0.10844,1.83321 0.45001,2.41499c0.73162,0.76218 2.30985,1.00454 2.02993,1.82832c-0.14681,0.43204 3.12651,2.15745 7.3677,2.62929c3.72932,0.4149 7.37197,0.13927 7.374,0.44087c0.03075,4.57682 -9.99241,4.83898 -9.99241,4.83898z" fill="#ff4a00" stroke="none" stroke-width="0" stroke-linecap="butt"/><path d="M208.95499,235.64043c-6.38977,-0.38559 -10.11016,-2.15711 -9.95629,-7.52034c0.15386,-5.36324 5.08507,-4.69389 10.44439,-4.70907c3.08028,-0.00873 6.10904,-0.12699 8.21474,0.09776c1.55797,0.16629 2.10709,0.31895 4.42093,1.8919c5.44116,3.69891 -6.73401,10.62533 -13.12377,10.23974z" fill="none" stroke="#000000" stroke-width="2" stroke-linecap="round"/><path d="M226.33219,233.34971c-1.83478,1.83477 -9.52826,9.71185 -16.80452,8.92522c-7.27626,-0.78662 -15.69616,-5.42414 -15.27049,-13.59702c0.42567,-8.17289 8.0044,-12.31258 16.66506,-13.17865c8.66065,-0.86606 10.50148,3.18084 15.40995,8.8555c0.89479,1.03446 0.58233,2.69483 0.56285,4.32072c-0.02473,2.06406 0.03887,4.07252 -0.56285,4.67423z" fill="none" stroke="#000000" stroke-width="2" stroke-linecap="round"/><path d="M258.91439,242.2539c0,0 -10.02316,-0.26216 -9.99241,-4.83897c0.00203,-0.30159 3.64468,-0.02597 7.374,-0.44086c4.2412,-0.47184 7.51451,-2.19725 7.3677,-2.62929c-0.27992,-0.82378 1.29832,-1.06613 2.02993,-1.82832c0.55845,-0.58177 0.25212,-1.65217 0.45001,-2.415c0.48134,-1.85534 -0.54636,-3.54926 -1.43178,-4.83733c-0.68426,-0.99543 -2.59884,-1.07778 -5.35425,-1.1395c-2.12752,-0.04767 -4.64932,-0.5067 -5.24916,-0.47042c-0.89339,0.05403 -5.13479,0.12301 -6.27475,0.33877c-2.48532,0.47042 -4.52712,1.52043 -4.94597,2.10813c-0.23641,0.33172 -0.33459,0.78364 -0.36354,1.29785c-0.04396,0.78064 0.07159,1.59365 0.10518,2.45895c0.02745,0.70693 1.55785,1.81958 1.34419,2.33738c-0.07412,0.17962 2.32077,1.59934 5.64521,2.8289c2.09112,0.77342 5.02069,1.13537 6.46024,2.11948c3.48368,2.38152 2.22383,5.2191 1.86398,5.37208c-0.90327,0.38397 -4.30323,0.91071 -9.09198,-1.25535c-3.51479,-1.58983 -10.13076,-6.90616 -10.13076,-6.90616l0.05563,-8.67848c0,0 3.44087,-5.21326 6.8455,-8.02972c3.23823,-2.67879 10.24245,-1.65191 15.6826,0.42231c4.80481,1.83198 7.8466,5.04835 7.8466,5.04835c0,0 1.29418,3.69158 1.41609,6.17059c0.15553,3.16243 -0.68915,3.59155 -0.81997,6.01539c-0.01349,0.24988 -2.35323,2.85654 -5.28215,4.66618c-2.43392,1.50379 -5.55014,2.28503 -5.55014,2.28503z" data-paper-data="{&quot;index&quot;:null}" fill="#ff4a00" stroke="none" stroke-width="0" stroke-linecap="butt"/><path d="M243.1864,226.17953c2.31384,-1.57295 2.86296,-1.72562 4.42093,-1.89192c2.10571,-0.22476 5.13446,-0.10648 8.21474,-0.09776c5.35933,0.01518 10.29052,-0.65418 10.44439,4.70907c0.15387,5.36324 -3.56653,7.13475 -9.9563,7.52034c-6.38977,0.38558 -18.56493,-6.54082 -13.12377,-10.23974z" data-paper-data="{&quot;index&quot;:null}" fill="none" stroke="#000000" stroke-width="2" stroke-linecap="round"/><path d="M238.37013,229.45431c-0.01948,-1.62589 -0.33194,-3.28626 0.56285,-4.32071c4.90847,-5.67467 6.7493,-9.72156 15.40995,-8.85549c8.66065,0.86606 16.23938,5.00576 16.66506,13.17865c0.42567,8.17289 -7.99423,12.81039 -15.27049,13.59702c-7.27626,0.78662 -14.96974,-7.09046 -16.80451,-8.92523c-0.60172,-0.60172 -0.53812,-2.61018 -0.56285,-4.67424z" data-paper-data="{&quot;index&quot;:null}" fill="none" stroke="#000000" stroke-width="2" stroke-linecap="round"/><path d="M241.85399,228.29042c0,5.03878 -4.18436,9.12353 -9.34606,9.12353c-5.1617,0 -9.34606,-4.08474 -9.34606,-9.12353c0,-5.03878 4.18437,-9.12354 9.34606,-9.12354c5.1617,0 9.34606,4.08476 9.34606,9.12355z" fill="#ff4a00" stroke="#000000" stroke-width="2" stroke-linecap="butt"/><path d="M235.32852,236.4062c0,0 -3.01818,-3.74169 -4.21493,-5.99842c-1.42568,-2.68841 -3.77316,-9.06484 -3.77316,-9.06484" fill="none" stroke="#000000" stroke-width="2" stroke-linecap="round"/><path d="M235.32852,220.20178c0,0 -0.27019,4.4273 -0.96303,5.92845c-0.67614,1.46497 -3.14514,2.97258 -3.14514,2.97258" fill="none" stroke="#000000" stroke-width="2" stroke-linecap="round"/><path d="M275.70407,157.71276l6.35244,-3.92356c0,0 11.31147,11.80505 10.75696,15.27806c-0.6212,3.89065 -4.77819,10.87906 -4.77819,10.87906c0,0 -0.97415,-8.90435 -3.10418,-12.74485c-1.96745,-3.54739 -9.22704,-9.48871 -9.22704,-9.48871z" fill="url(#color-1)" stroke="#000000" stroke-width="2" stroke-linecap="butt"/><path d="M282.37707,143.44929c-1.39244,2.61552 -2.39184,6.60405 -4.11327,7.94516c-1.84544,1.43773 -4.40913,0.11175 -5.72863,-0.59072c-1.25162,-0.66634 -3.31831,-1.95524 -3.23525,-4.11631c0.08619,-2.24238 2.37231,-5.39516 3.84154,-8.15492c2.88518,-5.41948 7.29156,-8.71216 9.8419,-7.35443c2.55034,1.35773 2.27889,6.85175 -0.60629,12.27123z" fill="url(#color-2)" stroke="#000000" stroke-width="2" stroke-linecap="butt"/><path d="M282.17269,173.10152c-1.06118,4.26149 -3.61638,10.68495 -3.61638,10.68495c0,0 -1.15619,-5.85809 -2.76511,-9.45454c-1.4362,-3.21039 -1.60715,-16.61084 -1.60715,-16.61084l7.71313,-0.84745c0,0 1.2557,12.29164 0.27551,16.22789z" data-paper-data="{&quot;index&quot;:null}" fill="url(#color-3)" stroke="#000000" stroke-width="2" stroke-linecap="butt"/><path d="M269.28096,173.47519c-1.06118,4.26149 -3.61637,10.68496 -3.61637,10.68496c0,0 -1.15619,-5.8581 -2.76511,-9.45455c-1.4362,-3.21039 9.22937,-16.79767 9.22937,-16.79767l3.78957,4.19714c0,0 -5.65726,7.43388 -6.63745,11.37013z" data-paper-data="{&quot;index&quot;:null}" fill="url(#color-4)" stroke="#000000" stroke-width="2" stroke-linecap="butt"/><path d="M261.90027,168.10503c-3.1979,3.00997 -6.83604,11.19534 -6.83604,11.19534c0,0 -1.83271,-7.9221 -1.24023,-11.81723c0.52887,-3.477 14.89678,-11.27909 14.89678,-11.27909l4.85682,5.67091c0,0 -8.7235,3.44984 -11.67732,6.23007z" data-paper-data="{&quot;index&quot;:null}" fill="url(#color-5)" stroke="#000000" stroke-width="2" stroke-linecap="butt"/><path d="M280.53076,157.09254c-2.67369,-1.27721 -6.70195,-2.10195 -8.11676,-3.76334c-1.51673,-1.78107 -0.30367,-4.40008 0.34067,-5.74892c0.61118,-1.27946 1.80885,-3.40031 3.97149,-3.41145c2.24401,-0.01156 5.49336,2.13509 8.3145,3.48273c5.53999,2.64642 9.02147,6.9052 7.77609,9.51226c-1.24538,2.60706 -6.74601,2.57514 -12.28599,-0.07128z" fill="url(#color-6)" stroke="#000000" stroke-width="2" stroke-linecap="butt"/><path d="M269.12181,158.2479c-0.08262,-2.96194 -1.18563,-6.92304 -0.35226,-8.93982c0.89342,-2.16207 3.77743,-2.27682 5.27169,-2.3185c1.41739,-0.03954 3.85104,0.05917 4.84719,1.97876c1.03362,1.99182 0.60498,5.86256 0.69215,8.98783c0.17118,6.13724 -2.03132,11.17777 -4.91943,11.25832c-2.88812,0.08056 -5.36817,-4.82936 -5.53935,-10.9666z" fill="url(#color-7)" stroke="#000000" stroke-width="2" stroke-linecap="butt"/><path d="M262.17751,147.9015c2.55031,-1.50856 5.47966,-4.39404 7.64757,-4.64317c2.32409,-0.26709 3.82297,2.1995 4.58402,3.48611c0.7219,1.22042 1.81571,3.39667 0.61997,5.1987c-1.24073,1.86984 -4.83378,3.37196 -7.52475,4.96371c-5.28436,3.12579 -10.76064,3.64383 -12.23159,1.15707c-1.47096,-2.48676 1.62042,-7.03663 6.90478,-10.16242z" fill="url(#color-8)" stroke="#000000" stroke-width="2" stroke-linecap="butt"/><path d="M270.19188,138.42511c2.25947,1.91695 5.9441,3.74192 6.88833,5.70923c1.01226,2.10904 -0.82873,4.33199 -1.79582,5.47186c-0.91733,1.08123 -2.61636,2.82644 -4.7103,2.28558c-2.17273,-0.56121 -4.76703,-3.46569 -7.15109,-5.48836c-4.68169,-3.97199 -6.9617,-8.97794 -5.09253,-11.18109c1.86917,-2.20315 7.17971,-0.76922 11.8614,3.20278z" fill="url(#color-9)" stroke="#000000" stroke-width="2" stroke-linecap="butt"/><path d="M280.74865,149.49195c0,4.12748 -3.34598,7.47347 -7.47346,7.47347c-4.12748,0 -7.47346,-3.34599 -7.47346,-7.47347c0,-4.12748 3.34598,-7.47346 7.47346,-7.47346c4.12748,0 7.47346,3.34599 7.47346,7.47346z" fill="url(#color-10)" stroke="#000000" stroke-width="2" stroke-linecap="butt"/><path d="M191.97738,312.16524c-4.08363,-8.54615 1.25103,-46.28816 1.25103,-46.28816h24.27001c0,0 3.98185,28.77576 0.50042,48.28982c-0.28934,1.62184 -21.93783,6.5445 -26.02146,-2.00165z" fill="#e4e4e4" stroke="#000000" stroke-width="2.5" stroke-linecap="butt"/><path d="M190.39162,316.91916c0,0 -3.42149,-8.55593 0,-12.51031c3.42149,-3.95439 25.07373,-3.36853 28.40114,0c3.99006,4.03936 0,12.51031 0,12.51031z" fill="#e4e4e4" stroke="#000000" stroke-width="2.5" stroke-linecap="butt"/><path d="M245.5174,312.91174c-4.08363,-8.54615 1.25103,-46.28817 1.25103,-46.28817h24.27001c0,0 3.98186,28.77576 0.50042,48.28982c-0.28935,1.62184 -21.93783,6.54451 -26.02146,-2.00165z" fill="#e4e4e4" stroke="#000000" stroke-width="2.5" stroke-linecap="butt"/><path d="M242.99561,318.33232c0,0 -3.56542,-8.55593 0,-12.51031c3.56542,-3.95439 26.12852,-3.36853 29.59591,0c4.15791,4.03936 0,12.51031 0,12.51031z" fill="#e4e4e4" stroke="#000000" stroke-width="2.5" stroke-linecap="butt"/><path d="M184.22593,278.04993l3.75144,-17.9276l35.02558,4.00331l5.50454,11.00907c0,0 -26.57117,-1.48318 -34.09278,-0.84093c-1.4052,0.11999 -4.71855,2.64322 -6.6749,4.59612c-2.56908,2.56455 -3.51389,-0.83997 -3.51389,-0.83997z" fill="#e4e4e4" stroke="none" stroke-width="0" stroke-linecap="butt"/><path d="M239.01203,276.63182l5.50454,-11.00907l31.02558,-4.00331l1.75144,13.26094z" data-paper-data="{&quot;index&quot;:null}" fill="#e4e4e4" stroke="none" stroke-width="0" stroke-linecap="butt"/></g></g></svg>